<svg width="393" height="703" viewBox="0 0 393 703" fill="none" xmlns="http://www.w3.org/2000/svg">
<path d="M554 700.859C554 701.098 376.904 701.304 158.518 701.304C-59.8669 701.304 -237 701.098 -237 700.859C-237 700.619 -59.9586 700.413 158.518 700.413C376.995 700.413 554 700.67 554 700.859Z" fill="#263238"/>
<path d="M382.443 51.6104H35.9537V347.98H382.443V51.6104Z" fill="#FAFAFA"/>
<path d="M383.36 348.836H35.0369V50.7882H383.36V348.836ZM36.8711 347.123H381.526V52.5011H36.8711V347.123Z" fill="#263238"/>
<path d="M388.716 33.7788H27.9385V52.6723H388.716V33.7788Z" fill="#263238"/>
<path d="M36.7427 52.6725L381.673 84.293L381.489 52.6725H36.7427Z" fill="#E0E0E0"/>
<path d="M101.473 151.525H89.8442V272.783H101.473V151.525Z" fill="#6F51EC"/>
<path d="M123.924 192.704H112.295V272.783H123.924V192.704Z" fill="#6F51EC"/>
<path d="M146.376 166.599H134.746V273.399H146.376V166.599Z" fill="#6F51EC"/>
<path d="M168.808 156.201H157.179V272.766H168.808V156.201Z" fill="#6F51EC"/>
<path d="M191.259 195.17H179.63V272.783H191.259V195.17Z" fill="#6F51EC"/>
<path d="M213.711 210.398H202.082V272.783H213.711V210.398Z" fill="#6F51EC"/>
<path d="M236.144 163.978H224.514V272.783H236.144V163.978Z" fill="#6F51EC"/>
<path d="M258.595 183.591H246.966V272.783H258.595V183.591Z" fill="#6F51EC"/>
<path d="M281.046 167.918H269.417V272.783H281.046V167.918Z" fill="#6F51EC"/>
<path d="M303.479 201.337H291.849V272.783H303.479V201.337Z" fill="#6F51EC"/>
<path d="M325.93 187.736H314.301V272.783H325.93V187.736Z" fill="#6F51EC"/>
<path d="M318.739 179.018C318.484 179.007 318.232 178.966 317.987 178.898L315.805 178.487C314.63 178.249 313.442 178.072 312.246 177.956C310.629 177.745 309 177.619 307.367 177.579C302.88 177.439 298.39 177.801 293.995 178.658C288.209 179.826 282.644 181.801 277.487 184.516C271.219 187.821 265.554 192.036 260.704 197.003C255.333 202.859 250.59 209.193 246.543 215.914C241.976 222.868 237.372 230.439 230.64 236.897C227.283 240.252 223.315 243.025 218.92 245.085C216.637 246.113 214.2 246.812 211.693 247.158C209.145 247.466 206.561 247.379 204.044 246.901C199.091 245.784 194.51 243.542 190.709 240.374C187.001 237.398 183.683 234.023 180.822 230.319C175.1 223.108 171.028 215.331 166.662 208.257C162.816 201.445 158.065 195.114 152.52 189.415C149.958 186.884 147.009 184.719 143.771 182.992C142.251 182.172 140.669 181.456 139.038 180.85C137.465 180.303 135.853 179.857 134.214 179.514C128.428 178.273 122.399 178.432 116.697 179.977C112.386 181.122 108.317 182.947 104.665 185.372C102.38 186.945 100.261 188.717 98.3364 190.665L96.869 192.207C96.5388 192.567 96.3554 192.738 96.3371 192.721C96.3187 192.704 96.4838 192.515 96.7956 192.156L98.208 190.545C100.075 188.529 102.165 186.703 104.444 185.098C108.102 182.591 112.198 180.696 116.55 179.497C122.341 177.876 128.479 177.67 134.379 178.898C141.545 180.414 148.061 183.898 153.089 188.901C158.72 194.647 163.541 201.042 167.432 207.932C171.816 215.006 175.907 222.748 181.574 229.857C184.392 233.51 187.661 236.839 191.314 239.775C194.989 242.817 199.392 244.991 204.154 246.113C208.989 247.036 214.015 246.433 218.443 244.4C222.73 242.387 226.604 239.685 229.888 236.417C236.51 230.063 241.132 222.56 245.7 215.606C249.798 208.84 254.596 202.466 260.025 196.575C264.956 191.569 270.715 187.336 277.084 184.036C282.329 181.314 287.988 179.355 293.867 178.23C298.31 177.407 302.843 177.097 307.367 177.305C309.014 177.37 310.655 177.524 312.283 177.767C313.475 177.907 314.657 178.113 315.823 178.384L317.987 178.881C318.241 178.907 318.493 178.953 318.739 179.018Z" fill="#263238"/>
<path d="M77.0593 281.227C76.7842 281.227 76.5641 246.643 76.5641 204.009C76.5641 161.374 76.7842 126.773 77.0593 126.773C77.3345 126.773 77.5362 161.357 77.5362 204.009C77.5362 246.66 77.3161 281.227 77.0593 281.227Z" fill="#263238"/>
<path d="M330.68 281.227C330.68 281.467 275.525 281.673 207.511 281.673C139.497 281.673 84.3412 281.467 84.3412 281.227C84.3412 280.988 139.479 280.782 207.511 280.782C275.543 280.782 330.68 281.005 330.68 281.227Z" fill="#263238"/>
<path d="M106.426 290.768C103.578 291.208 100.687 291.358 97.8047 291.214C94.9222 291.358 92.0316 291.208 89.1837 290.768C92.0316 290.328 94.9222 290.179 97.8047 290.323C100.687 290.179 103.578 290.328 106.426 290.768Z" fill="#263238"/>
<path d="M135.058 291.282C131.645 291.732 128.193 291.881 124.75 291.728C121.319 291.879 117.88 291.73 114.478 291.282C117.899 290.842 121.355 290.693 124.805 290.837C128.23 290.696 131.662 290.845 135.058 291.282Z" fill="#263238"/>
<path d="M159.454 291.282C156.04 291.733 152.589 291.882 149.145 291.728C145.702 291.881 142.25 291.732 138.837 291.282C142.251 290.842 145.702 290.693 149.145 290.837C152.589 290.693 156.039 290.842 159.454 291.282Z" fill="#263238"/>
<path d="M183.867 291.282C180.454 291.733 177.002 291.882 173.559 291.728C170.115 291.881 166.664 291.732 163.25 291.282C166.665 290.842 170.115 290.693 173.559 290.837C177.002 290.693 180.453 290.842 183.867 291.282Z" fill="#263238"/>
<path d="M208.282 291.282C204.868 291.732 201.417 291.881 197.973 291.728C194.529 291.882 191.078 291.733 187.665 291.282C191.079 290.842 194.529 290.693 197.973 290.837C201.417 290.693 204.867 290.842 208.282 291.282Z" fill="#263238"/>
<path d="M232.695 291.282C229.281 291.732 225.83 291.881 222.386 291.728C218.943 291.882 215.492 291.733 212.078 291.282C218.936 290.688 225.837 290.688 232.695 291.282Z" fill="#263238"/>
<path d="M257.109 291.282C250.245 291.876 243.337 291.876 236.474 291.282C243.337 290.689 250.245 290.689 257.109 291.282Z" fill="#263238"/>
<path d="M281.523 291.282C274.659 291.876 267.751 291.876 260.887 291.282C267.751 290.689 274.659 290.689 281.523 291.282Z" fill="#263238"/>
<path d="M305.918 291.282C299.06 291.876 292.159 291.876 285.301 291.282C292.159 290.688 299.06 290.688 305.918 291.282Z" fill="#263238"/>
<path d="M330.332 291.282C323.474 291.876 316.573 291.876 309.715 291.282C316.573 290.688 323.474 290.688 330.332 291.282Z" fill="#263238"/>
<path d="M169.304 209.062C169.304 208.942 170.349 209.267 170.679 210.604C170.905 211.377 170.814 212.202 170.423 212.916C170.159 213.381 169.711 213.731 169.175 213.892C168.889 213.969 168.589 213.992 168.293 213.959C167.997 213.927 167.711 213.84 167.451 213.704C166.971 213.453 166.576 213.08 166.313 212.628C166.051 212.177 165.93 211.665 165.965 211.152C165.995 210.752 166.116 210.362 166.322 210.01C166.528 209.659 166.813 209.352 167.158 209.113C167.378 208.933 167.641 208.805 167.925 208.74C168.209 208.674 168.506 208.673 168.79 208.736C169.175 208.839 169.322 209.028 169.285 209.062C169.249 209.096 168.423 208.822 167.58 209.593C167.125 210.016 166.862 210.587 166.846 211.186C166.844 211.532 166.939 211.873 167.123 212.173C167.306 212.474 167.571 212.724 167.891 212.899C168.039 212.991 168.205 213.053 168.379 213.082C168.554 213.112 168.733 213.107 168.905 213.068C169.077 213.029 169.239 212.958 169.38 212.858C169.521 212.758 169.639 212.632 169.726 212.488C170.017 211.96 170.138 211.365 170.074 210.775C169.909 209.661 169.23 209.233 169.304 209.062Z" fill="#263238"/>
<path d="M281.67 179.942C281.67 179.942 281.945 179.805 282.422 179.942C283.073 180.166 283.615 180.605 283.944 181.176C284.213 181.59 284.385 182.054 284.448 182.535C284.512 183.016 284.465 183.505 284.311 183.968C284.138 184.574 283.762 185.113 283.237 185.505C282.712 185.896 282.066 186.12 281.394 186.143C281.037 186.123 280.689 186.031 280.372 185.874C280.056 185.718 279.779 185.5 279.56 185.235C279.174 184.785 278.904 184.257 278.771 183.694C278.649 183.225 278.627 182.738 278.709 182.261C278.791 181.785 278.974 181.328 279.248 180.919C280.294 179.531 281.596 179.6 281.56 179.703C281.523 179.805 280.532 180.028 279.835 181.227C279.474 181.888 279.376 182.647 279.56 183.368C279.799 184.19 280.477 185.081 281.394 185.081C281.862 185.043 282.307 184.877 282.673 184.602C283.039 184.328 283.309 183.958 283.449 183.54C283.702 182.801 283.65 182 283.302 181.296C282.945 180.679 282.367 180.2 281.67 179.942Z" fill="#263238"/>
<path d="M283.504 122.559C283.229 122.559 283.027 121.977 283.027 121.275C283.027 120.573 283.229 119.99 283.504 119.99C283.779 119.99 283.981 120.555 283.981 121.275C283.981 121.994 283.761 122.559 283.504 122.559Z" fill="#263238"/>
<path d="M283.504 133.831C283.229 133.831 283.027 132.563 283.027 131.021C283.027 129.48 283.229 128.195 283.504 128.195C283.779 128.195 283.981 129.463 283.981 131.021C283.981 132.58 283.761 133.831 283.504 133.831Z" fill="#263238"/>
<path d="M283.504 145.102C283.229 145.102 283.027 143.851 283.027 142.292C283.027 140.734 283.229 139.466 283.504 139.466C283.779 139.466 283.981 140.734 283.981 142.292C283.981 143.851 283.761 145.102 283.504 145.102Z" fill="#263238"/>
<path d="M283.504 156.39C283.229 156.39 283.027 155.122 283.027 153.563C283.027 152.005 283.229 150.754 283.504 150.754C283.779 150.754 283.981 152.005 283.981 153.563C283.981 155.122 283.761 156.39 283.504 156.39Z" fill="#263238"/>
<path d="M283.504 167.661C283.229 167.661 283.027 166.393 283.027 164.852C283.027 163.31 283.229 162.025 283.504 162.025C283.779 162.025 283.981 163.293 283.981 164.852C283.981 166.41 283.761 167.661 283.504 167.661Z" fill="#263238"/>
<path d="M283.504 175.866C283.229 175.866 283.027 175.301 283.027 174.581C283.027 173.862 283.229 173.296 283.504 173.296C283.779 173.296 283.981 173.879 283.981 174.581C283.981 175.283 283.761 175.866 283.504 175.866Z" fill="#263238"/>
<path d="M366.21 100.857C366.21 101.114 347.152 101.302 323.619 101.302C300.085 101.302 281.027 101.114 281.027 100.857C281.027 100.6 300.085 100.412 323.619 100.412C347.152 100.412 366.21 100.617 366.21 100.857Z" fill="#263238"/>
<path d="M337.119 89.7228C337.119 89.9626 324.848 90.1682 309.715 90.1682C294.583 90.1682 282.311 89.9626 282.311 89.7228C282.311 89.483 294.583 89.2775 309.715 89.2775C324.848 89.2775 337.119 89.483 337.119 89.7228Z" fill="#263238"/>
<g opacity="0.3">
<path d="M101.473 151.525H89.8442V272.783H101.473V151.525Z" fill="white"/>
</g>
<g opacity="0.3">
<path d="M123.924 192.704H112.295V272.783H123.924V192.704Z" fill="white"/>
</g>
<g opacity="0.3">
<path d="M146.376 166.599H134.746V273.399H146.376V166.599Z" fill="white"/>
</g>
<g opacity="0.3">
<path d="M168.808 156.201H157.179V272.766H168.808V156.201Z" fill="white"/>
</g>
<g opacity="0.3">
<path d="M191.259 195.17H179.63V272.783H191.259V195.17Z" fill="white"/>
</g>
<g opacity="0.3">
<path d="M213.711 210.398H202.082V272.783H213.711V210.398Z" fill="white"/>
</g>
<g opacity="0.3">
<path d="M236.144 163.978H224.514V272.783H236.144V163.978Z" fill="white"/>
</g>
<g opacity="0.3">
<path d="M258.595 183.591H246.966V272.783H258.595V183.591Z" fill="white"/>
</g>
<g opacity="0.3">
<path d="M281.046 167.918H269.417V272.783H281.046V167.918Z" fill="white"/>
</g>
<g opacity="0.3">
<path d="M303.479 201.337H291.849V272.783H303.479V201.337Z" fill="white"/>
</g>
<g opacity="0.3">
<path d="M325.93 187.736H314.301V272.783H325.93V187.736Z" fill="white"/>
</g>
<path d="M193.351 694.058L193.461 677.272L159.784 676.895L159.344 701.458L161.435 701.612C170.716 702.195 208.703 703.976 214.94 702.297C221.873 700.413 193.351 694.058 193.351 694.058Z" fill="#7D38FF"/>
<g opacity="0.4">
<path d="M171.541 701.355C171.081 698.694 169.586 696.285 167.341 694.589C165.132 692.912 162.333 692.063 159.49 692.208L159.362 701.013L171.541 701.355Z" fill="black"/>
</g>
<g opacity="0.4">
<path d="M207.272 697.621C207.272 697.621 217.269 700.448 216.004 701.972C214.738 703.497 176.274 703.051 159.325 701.458V700.756L204.173 701.647C204.173 701.647 205.31 697.69 207.272 697.621Z" fill="black"/>
</g>
<path d="M158.867 700.67C159.056 700.687 159.246 700.687 159.436 700.67L161.105 700.79L167.231 701.099C172.385 701.338 179.539 701.578 187.408 701.681C195.277 701.784 202.467 701.681 207.585 701.681L213.711 701.527H215.362H215.949H213.693H207.566C202.394 701.527 195.258 701.527 187.389 701.527C179.521 701.527 172.349 701.219 167.213 701.064L161.086 700.859H159.436L158.867 700.67Z" fill="#263238"/>
<path d="M204.228 702.126C204.514 701.185 204.914 700.277 205.42 699.42C206.022 698.62 206.731 697.895 207.529 697.262C206.48 697.607 205.605 698.303 205.071 699.214C204.423 700.058 204.123 701.092 204.228 702.126Z" fill="#263238"/>
<path d="M194.36 697.244C194.451 697.244 194.928 696.765 195.442 696.045C195.955 695.326 196.267 694.692 196.175 694.641C196.084 694.589 195.589 695.12 195.093 695.84C194.598 696.559 194.268 697.244 194.36 697.244Z" fill="#263238"/>
<path d="M191.645 695.926C191.645 695.926 192.25 695.686 192.837 695.206C193.424 694.727 193.846 694.264 193.773 694.196C193.699 694.127 193.167 694.435 192.58 694.915C191.993 695.395 191.516 695.84 191.645 695.926Z" fill="#263238"/>
<path d="M189.958 692.946C191.116 693.197 192.321 693.197 193.479 692.946C192.924 692.749 192.328 692.672 191.737 692.722C190.765 692.757 189.958 692.825 189.958 692.946Z" fill="#263238"/>
<path d="M189.407 690.838C190.011 691.145 190.676 691.333 191.361 691.389C192.046 691.445 192.735 691.368 193.387 691.164C192.726 691.064 192.058 691.013 191.388 691.01C190.735 690.895 190.071 690.837 189.407 690.838Z" fill="#263238"/>
<path d="M195.533 694.572C196.248 694.699 196.983 694.699 197.698 694.572C198.481 694.491 199.255 694.342 200.009 694.127C200.467 694.008 200.91 693.841 201.33 693.63C201.59 693.497 201.786 693.277 201.88 693.013C201.916 692.863 201.905 692.706 201.85 692.561C201.795 692.415 201.697 692.287 201.568 692.191C201.038 691.941 200.454 691.804 199.859 691.792C199.265 691.779 198.675 691.891 198.133 692.12C197.592 692.348 197.111 692.687 196.728 693.111C196.345 693.536 196.068 694.035 195.919 694.572C195.878 694.747 195.878 694.928 195.919 695.103C196.163 694.489 196.503 693.912 196.927 693.39C197.42 692.876 198.055 692.496 198.762 692.294C199.186 692.166 199.633 692.119 200.077 692.154C200.521 692.189 200.953 692.307 201.348 692.5C201.678 692.739 201.55 693.116 201.164 693.322C200.771 693.511 200.36 693.666 199.936 693.784C199.207 694.017 198.458 694.188 197.698 694.298C196.359 694.521 195.533 694.521 195.533 694.572Z" fill="#263238"/>
<path d="M196.102 694.675C196.364 694.257 196.456 693.764 196.359 693.288C196.308 692.754 196.112 692.241 195.79 691.797C195.61 691.488 195.345 691.229 195.023 691.045C194.701 690.862 194.333 690.761 193.956 690.752C193.846 690.771 193.741 690.81 193.647 690.866C193.553 690.923 193.473 690.996 193.409 691.083C193.346 691.169 193.302 691.265 193.279 691.368C193.257 691.47 193.256 691.575 193.277 691.677C193.329 691.998 193.447 692.307 193.626 692.585C193.911 693.031 194.249 693.444 194.634 693.819C195.295 694.435 195.827 694.692 195.863 694.641C195.9 694.589 195.441 694.281 194.836 693.63C194.505 693.25 194.21 692.843 193.956 692.414C193.662 691.986 193.479 691.215 193.956 691.129C194.433 691.044 195.056 691.592 195.368 692.003C195.673 692.395 195.88 692.845 195.973 693.322C196.055 693.769 196.098 694.221 196.102 694.675Z" fill="#263238"/>
<path d="M159.674 692.106C159.674 692.191 160.628 692.106 162.15 692.226C164.131 692.451 166.004 693.197 167.549 694.376C169.095 695.556 170.25 697.121 170.881 698.889C171.376 700.242 171.413 701.15 171.505 701.15C171.541 700.94 171.541 700.726 171.505 700.516C171.46 699.935 171.343 699.36 171.156 698.803C170.57 696.948 169.409 695.297 167.818 694.059C166.202 692.855 164.245 692.117 162.187 691.935C161.577 691.871 160.962 691.871 160.352 691.935C160.118 691.96 159.89 692.018 159.674 692.106Z" fill="#263238"/>
<path d="M163.341 679.087C163.073 681.231 162.945 683.387 162.957 685.545C162.812 687.696 162.812 689.852 162.957 692.003C163.212 689.859 163.334 687.703 163.323 685.545C163.467 683.395 163.473 681.238 163.341 679.087Z" fill="#263238"/>
<path d="M175.834 698.323C177.435 698.697 179.081 698.871 180.731 698.838C182.383 698.944 184.043 698.84 185.665 698.529C185.665 698.426 183.464 698.529 180.75 698.529C178.035 698.529 175.834 698.22 175.834 698.323Z" fill="#263238"/>
<path d="M169.231 698.238C169.231 698.323 169.396 698.683 169.616 699.163C169.836 699.642 169.946 700.053 170.074 700.036C170.203 700.019 170.258 699.54 170.074 699.009C169.891 698.478 169.304 698.169 169.231 698.238Z" fill="#263238"/>
<path d="M166.772 695.326C166.772 695.326 166.901 695.72 167.249 696.062C167.598 696.405 167.946 696.61 168.02 696.525C168.093 696.439 167.891 696.131 167.543 695.788C167.194 695.446 166.864 695.257 166.772 695.326Z" fill="#263238"/>
<path d="M163.232 693.956C163.232 694.059 163.709 694.076 164.204 694.23C164.7 694.384 165.048 694.658 165.14 694.59C165.232 694.521 164.938 694.076 164.333 693.87C163.727 693.665 163.196 693.819 163.232 693.956Z" fill="#263238"/>
<path d="M160.701 693.305C160.701 693.408 160.866 693.562 161.141 693.665C161.416 693.768 161.673 693.786 161.71 693.665C161.746 693.545 161.563 693.408 161.288 693.305C161.013 693.202 160.756 693.202 160.701 693.305Z" fill="#263238"/>
<path d="M62.5322 694.058L62.4222 677.272L96.0989 676.895L96.5391 701.458L94.4481 701.612C85.1668 702.195 47.1796 703.976 40.9432 702.297C33.9914 700.413 62.5322 694.058 62.5322 694.058Z" fill="#7D38FF"/>
<g opacity="0.4">
<path d="M84.3234 701.355C84.7835 698.694 86.2792 696.285 88.5238 694.589C90.7325 692.912 93.5315 692.063 96.3744 692.208L96.5028 701.013L84.3234 701.355Z" fill="black"/>
</g>
<g opacity="0.4">
<path d="M48.5921 697.621C48.5921 697.621 38.5955 700.448 39.8611 701.972C41.1268 703.497 79.5909 703.051 96.5393 701.458V700.756L51.692 701.647C51.692 701.647 50.5548 697.69 48.5921 697.621Z" fill="black"/>
</g>
<path d="M96.9975 700.67C96.8084 700.687 96.618 700.687 96.4289 700.67L94.7597 700.79L88.6333 701.099C83.4791 701.338 76.3255 701.578 68.4566 701.681C60.5877 701.784 53.3975 701.681 48.2799 701.681L42.1536 701.527H40.5027H39.9158H42.1719H48.2983C53.4708 701.527 60.606 701.527 68.475 701.527C76.3439 701.527 83.5158 701.219 88.6517 701.064L94.778 700.859H96.4289L96.9975 700.67Z" fill="#263238"/>
<path d="M51.637 702.126C51.352 701.187 50.9584 700.28 50.4631 699.42C49.8511 698.622 49.1365 697.897 48.3353 697.262C49.3844 697.607 50.2597 698.303 50.7932 699.214C51.4418 700.058 51.7416 701.092 51.637 702.126Z" fill="#263238"/>
<path d="M61.5053 697.244C61.4136 697.244 60.9367 696.765 60.4231 696.045C59.9095 695.326 59.5977 694.692 59.6894 694.641C59.7811 694.589 60.2764 695.12 60.7716 695.84C61.2668 696.559 61.597 697.244 61.5053 697.244Z" fill="#263238"/>
<path d="M64.2199 695.926C64.2199 695.926 63.6146 695.686 63.0276 695.206C62.4407 694.727 62.0188 694.264 62.0922 694.196C62.1655 694.127 62.6974 694.435 63.2844 694.915C63.8714 695.395 64.2933 695.84 64.2199 695.926Z" fill="#263238"/>
<path d="M65.9072 692.946C64.7487 693.197 63.544 693.197 62.3855 692.946C62.9699 692.738 63.5981 692.662 64.2197 692.722C65.1002 692.757 65.9072 692.825 65.9072 692.946Z" fill="#263238"/>
<path d="M66.4574 690.838C65.8534 691.145 65.1883 691.333 64.5035 691.389C63.8187 691.445 63.1289 691.368 62.4771 691.164C63.1382 691.064 63.8067 691.013 64.4764 691.01C65.1295 690.895 65.7928 690.837 66.4574 690.838Z" fill="#263238"/>
<path d="M60.3312 694.572C59.6161 694.699 58.8819 694.699 58.1668 694.572C57.3833 694.491 56.6095 694.342 55.8556 694.127C55.3971 694.008 54.9541 693.841 54.535 693.63C54.2747 693.497 54.0781 693.277 53.9847 693.013C53.9489 692.863 53.9591 692.706 54.0143 692.561C54.0694 692.415 54.1672 692.287 54.2965 692.191C54.827 691.941 55.4108 691.804 56.0051 691.792C56.5995 691.779 57.1893 691.891 57.7311 692.12C58.273 692.348 58.7532 692.687 59.1365 693.111C59.5198 693.536 59.7964 694.035 59.946 694.572C59.9862 694.747 59.9862 694.928 59.946 695.103C59.7018 694.489 59.3618 693.912 58.9372 693.39C58.4443 692.876 57.81 692.496 57.1029 692.294C56.6788 692.166 56.2317 692.119 55.7877 692.154C55.3436 692.189 54.9115 692.307 54.5166 692.5C54.1865 692.739 54.3149 693.116 54.7001 693.322C55.0936 693.511 55.505 693.666 55.929 693.784C56.6574 694.017 57.4062 694.188 58.1668 694.298C59.4508 694.521 60.3312 694.521 60.3312 694.572Z" fill="#263238"/>
<path d="M59.7628 694.675C59.5003 694.257 59.4091 693.764 59.506 693.288C59.5568 692.754 59.7525 692.241 60.0746 691.797C60.255 691.488 60.5196 691.229 60.8416 691.045C61.1637 690.862 61.5318 690.761 61.9089 690.752C62.0188 690.771 62.1237 690.81 62.2175 690.866C62.3112 690.923 62.392 690.996 62.4552 691.083C62.5183 691.169 62.5625 691.265 62.5852 691.368C62.6079 691.47 62.6087 691.575 62.5875 691.677C62.536 691.998 62.4176 692.307 62.239 692.585C61.9539 693.031 61.6154 693.444 61.2302 693.819C60.5699 694.435 60.0379 694.692 60.0013 694.641C59.9646 694.589 60.4415 694.281 61.0284 693.63C61.3659 693.254 61.6609 692.847 61.9089 692.414C62.2023 691.986 62.3858 691.215 61.9089 691.129C61.432 691.044 60.8083 691.592 60.4965 692.003C60.1973 692.398 59.991 692.847 59.8912 693.322C59.8093 693.769 59.7664 694.221 59.7628 694.675Z" fill="#263238"/>
<path d="M96.1358 692.106C96.1358 692.191 95.182 692.106 93.6596 692.226C91.6782 692.451 89.806 693.197 88.2605 694.376C86.715 695.556 85.5596 697.121 84.9286 698.889C84.4333 700.242 84.3967 701.15 84.305 701.15C84.269 700.94 84.269 700.726 84.305 700.516C84.3496 699.935 84.4666 699.36 84.6535 698.803C85.2394 696.948 86.4011 695.297 87.9918 694.059C89.608 692.855 91.5648 692.117 93.6229 691.935C94.2325 691.871 94.8476 691.871 95.4572 691.935C95.6912 691.96 95.9198 692.018 96.1358 692.106Z" fill="#263238"/>
<path d="M92.4668 679.087C92.7348 681.231 92.8631 683.387 92.8509 685.545C92.9954 687.696 92.9954 689.852 92.8509 692.003C92.596 689.859 92.4739 687.703 92.4851 685.545C92.3406 683.395 92.3345 681.238 92.4668 679.087Z" fill="#263238"/>
<path d="M80.0311 698.323C78.4303 698.697 76.7834 698.871 75.1337 698.838C73.4816 698.944 71.8218 698.84 70.1996 698.529C70.1996 698.426 72.4007 698.529 75.1153 698.529C77.83 698.529 80.0311 698.22 80.0311 698.323Z" fill="#263238"/>
<path d="M86.6343 698.238C86.726 698.323 86.4692 698.683 86.2491 699.163C86.029 699.642 85.919 700.053 85.7906 700.036C85.6622 700.019 85.6071 699.54 85.7906 699.009C85.974 698.478 86.561 698.169 86.6343 698.238Z" fill="#263238"/>
<path d="M89.092 695.326C89.092 695.326 88.9636 695.72 88.6151 696.062C88.2666 696.405 87.9181 696.61 87.8447 696.525C87.7713 696.439 87.9731 696.131 88.3216 695.788C88.6701 695.446 89.0003 695.257 89.092 695.326Z" fill="#263238"/>
<path d="M92.6322 693.956C92.6322 694.059 92.1553 694.076 91.6601 694.23C91.1648 694.384 90.8163 694.658 90.7246 694.59C90.6329 694.521 90.9264 694.076 91.5317 693.87C92.137 693.665 92.6689 693.819 92.6322 693.956Z" fill="#263238"/>
<path d="M95.1639 693.305C95.1639 693.408 94.9988 693.562 94.7237 693.665C94.4485 693.768 94.1917 693.786 94.1551 693.665C94.1184 693.545 94.3018 693.408 94.5769 693.305C94.8521 693.202 95.1089 693.202 95.1639 693.305Z" fill="#263238"/>
<path d="M216.059 372.458L203.146 687.703L150.686 688.731L159.399 415.572L100.41 690.821H50.5365L114.772 373.091L216.059 372.458Z" fill="#263238"/>
<path d="M171.486 383.917C171.44 385.643 171.238 387.362 170.881 389.056C170.404 392.242 169.652 396.644 168.79 401.492C168.445 403.803 167.943 406.092 167.286 408.343C166.692 410.231 165.496 411.904 163.856 413.139C162.764 413.976 161.454 414.525 160.059 414.732C159.558 414.842 159.037 414.842 158.537 414.732C160.423 414.506 162.191 413.752 163.609 412.569C165.027 411.385 166.027 409.828 166.479 408.103C167.076 405.885 167.542 403.638 167.873 401.372C168.753 396.507 169.579 392.122 170.239 388.97C170.508 387.257 170.926 385.567 171.486 383.917Z" fill="#263238"/>
<path d="M160.573 385.493C160.683 385.578 160.261 386.092 160.573 386.915C160.635 387.138 160.746 387.347 160.897 387.529C161.048 387.712 161.237 387.864 161.453 387.977C161.718 388.075 162.008 388.099 162.288 388.047C162.568 387.996 162.825 387.87 163.031 387.685C163.254 387.52 163.42 387.297 163.508 387.044C163.596 386.791 163.602 386.52 163.526 386.264C163.434 386.052 163.297 385.859 163.124 385.697C162.95 385.535 162.744 385.408 162.517 385.322C161.673 384.979 161.086 385.322 161.013 385.202C160.94 385.082 161.49 384.482 162.719 384.739C163.073 384.818 163.402 384.971 163.682 385.188C163.962 385.405 164.185 385.679 164.333 385.99C164.47 386.4 164.477 386.839 164.353 387.253C164.229 387.667 163.979 388.038 163.634 388.322C163.289 388.607 162.863 388.792 162.407 388.855C161.952 388.918 161.487 388.857 161.068 388.679C160.746 388.499 160.474 388.25 160.276 387.952C160.078 387.654 159.96 387.316 159.931 386.966C159.747 385.784 160.536 385.322 160.573 385.493Z" fill="#263238"/>
<path d="M132.399 389.929C131.778 388.506 131.545 386.962 131.722 385.434C131.898 383.906 132.477 382.443 133.408 381.176C133.646 381.279 132.894 383.146 132.637 385.527C132.38 387.908 132.674 389.878 132.399 389.929Z" fill="#263238"/>
<path d="M138.708 389.553C138.096 388.078 137.839 386.495 137.956 384.917C138.073 383.339 138.562 381.804 139.387 380.423C139.316 381.95 139.144 383.472 138.873 384.979C138.925 386.505 138.87 388.033 138.708 389.553Z" fill="#263238"/>
<path d="M192.929 390.837C192.891 389.257 192.989 387.675 193.222 386.11C193.16 384.525 193.233 382.938 193.442 381.365C194.145 382.867 194.386 384.521 194.139 386.144C194.203 387.782 193.785 389.406 192.929 390.837Z" fill="#263238"/>
<path d="M199.771 390.478C199.514 390.392 200.339 388.319 200.523 385.681C200.706 383.043 200.229 380.885 200.523 380.817C201.26 382.359 201.579 384.048 201.451 385.733C201.323 387.418 200.752 389.048 199.789 390.478H199.771Z" fill="#263238"/>
<path d="M142.982 241.299L175.375 238.884C175.577 235.355 175.375 221.755 175.375 221.755C175.375 221.755 188.839 219.802 189.004 207.229C189.169 194.656 186.839 165.76 186.839 165.76C179.181 162.685 170.783 161.576 162.512 162.545C154.241 163.515 146.398 166.529 139.791 171.275L137.81 172.714L142.982 241.299Z" fill="#FFD5C0"/>
<path d="M175.32 221.515C169.104 221.617 162.996 219.995 157.766 216.856C157.766 216.856 161.912 225.9 175.357 224.769L175.32 221.515Z" fill="#F6C3A9"/>
<path d="M139.387 185.681C139.167 185.578 130.124 183.111 130.418 191.71C130.711 200.309 139.901 198.271 139.919 198.014C139.937 197.757 139.387 185.681 139.387 185.681Z" fill="#FFD0B8"/>
<path d="M136.984 194.845C136.984 194.845 136.838 194.965 136.563 195.085C136.18 195.228 135.753 195.228 135.37 195.085C134.762 194.751 134.26 194.272 133.915 193.697C133.57 193.122 133.395 192.472 133.408 191.813C133.369 191.076 133.5 190.34 133.793 189.655C133.87 189.383 134.017 189.133 134.222 188.927C134.426 188.721 134.682 188.565 134.967 188.473C135.148 188.421 135.343 188.431 135.517 188.499C135.691 188.568 135.834 188.692 135.921 188.85C136.049 189.089 135.921 189.261 136.049 189.278C136.177 189.295 136.232 189.124 136.159 188.781C136.096 188.57 135.961 188.383 135.774 188.25C135.646 188.162 135.501 188.099 135.346 188.067C135.191 188.035 135.031 188.033 134.875 188.062C134.501 188.143 134.156 188.311 133.87 188.551C133.585 188.79 133.369 189.093 133.243 189.432C132.881 190.22 132.736 191.079 132.821 191.933C132.799 192.7 133.021 193.455 133.459 194.104C133.896 194.753 134.529 195.267 135.279 195.581C135.529 195.643 135.792 195.65 136.046 195.603C136.3 195.555 136.54 195.454 136.746 195.307C136.984 195.05 137.021 194.862 136.984 194.845Z" fill="#EB996E"/>
<path d="M183.794 185.407C183.795 185.871 183.605 186.318 183.264 186.656C182.923 186.993 182.456 187.196 181.96 187.222C181.715 187.241 181.468 187.213 181.234 187.141C181 187.069 180.785 186.953 180.6 186.801C180.415 186.649 180.265 186.464 180.158 186.257C180.051 186.05 179.99 185.825 179.979 185.595C179.964 185.362 180 185.128 180.086 184.908C180.171 184.688 180.304 184.487 180.476 184.317C180.647 184.147 180.855 184.011 181.085 183.919C181.315 183.826 181.563 183.779 181.813 183.779C182.059 183.761 182.305 183.788 182.539 183.861C182.773 183.933 182.989 184.049 183.173 184.201C183.358 184.352 183.508 184.537 183.615 184.745C183.722 184.952 183.783 185.177 183.794 185.407Z" fill="#263238"/>
<path d="M184.18 183.368C183.941 183.608 182.492 182.597 180.511 182.597C178.53 182.597 176.843 183.574 176.696 183.334C176.549 183.094 176.824 182.803 177.485 182.358C178.383 181.774 179.454 181.469 180.548 181.484C181.62 181.478 182.667 181.79 183.538 182.375C184.18 182.854 184.345 183.368 184.18 183.368Z" fill="#263238"/>
<path d="M163.526 185.852C163.541 186.086 163.505 186.319 163.419 186.539C163.334 186.759 163.201 186.96 163.029 187.13C162.858 187.3 162.65 187.436 162.42 187.528C162.19 187.621 161.942 187.668 161.692 187.668C161.448 187.686 161.203 187.659 160.97 187.588C160.738 187.517 160.523 187.403 160.338 187.253C160.153 187.103 160.003 186.92 159.895 186.714C159.787 186.509 159.725 186.286 159.711 186.058C159.696 185.824 159.732 185.59 159.818 185.371C159.903 185.151 160.036 184.95 160.208 184.779C160.38 184.609 160.587 184.474 160.817 184.381C161.047 184.289 161.295 184.241 161.545 184.242C161.789 184.223 162.035 184.25 162.267 184.322C162.5 184.393 162.714 184.507 162.899 184.657C163.084 184.807 163.234 184.99 163.342 185.195C163.45 185.401 163.512 185.624 163.526 185.852Z" fill="#263238"/>
<path d="M163.875 183.745C163.636 183.985 162.169 182.974 160.096 182.974C158.023 182.974 156.428 183.951 156.299 183.711C156.171 183.471 156.427 183.18 157.088 182.735C157.979 182.152 159.045 181.846 160.133 181.861C161.211 181.852 162.265 182.164 163.141 182.752C163.764 183.214 164.003 183.642 163.875 183.745Z" fill="#263238"/>
<path d="M171.34 198.082C172.433 197.754 173.568 197.564 174.715 197.517C175.247 197.517 175.742 197.363 175.834 197.02C175.872 196.511 175.744 196.004 175.467 195.564C174.971 194.365 174.458 193.115 173.908 191.813C172.461 188.628 171.289 185.34 170.404 181.981C172.125 185.047 173.579 188.238 174.751 191.522C175.265 192.841 175.779 194.091 176.255 195.307C176.583 195.904 176.68 196.587 176.531 197.243C176.451 197.417 176.33 197.571 176.178 197.696C176.025 197.82 175.845 197.911 175.65 197.962C175.356 198.032 175.055 198.072 174.751 198.082C173.618 198.212 172.473 198.212 171.34 198.082Z" fill="#263238"/>
<path d="M165.287 199.418C165.635 199.418 165.635 201.491 167.561 202.981C169.487 204.472 171.872 204.249 171.89 204.54C171.908 204.831 171.358 204.951 170.349 204.968C169.016 205.008 167.712 204.594 166.681 203.804C165.675 203.065 165.017 201.99 164.847 200.806C164.883 199.932 165.14 199.401 165.287 199.418Z" fill="#263238"/>
<path d="M164.406 176.174C164.204 176.688 162.132 176.448 159.711 176.722C157.289 176.996 155.308 177.613 154.997 177.133C154.685 176.654 155.18 176.414 155.987 175.9C157.047 175.283 158.242 174.896 159.483 174.769C160.725 174.641 161.981 174.776 163.159 175.163C164.003 175.506 164.498 175.917 164.406 176.174Z" fill="#263238"/>
<path d="M183.464 177.784C183.097 178.23 181.63 177.784 179.961 177.784C178.291 177.784 176.787 178.075 176.457 177.613C176.127 177.15 176.457 176.962 177.173 176.534C178.017 176.024 179.011 175.773 180.016 175.814C181.027 175.837 182.006 176.148 182.822 176.705C183.427 177.116 183.629 177.579 183.464 177.784Z" fill="#263238"/>
<path d="M193.351 157.674C193.447 156.895 193.329 156.105 193.008 155.38C192.687 154.655 192.174 154.018 191.517 153.529C190.841 153.064 190.009 152.839 189.172 152.896C188.334 152.952 187.546 153.286 186.949 153.837C187.074 153.312 187.079 152.768 186.965 152.241C186.85 151.713 186.619 151.214 186.285 150.775C185.952 150.336 185.524 149.967 185.028 149.692C184.533 149.417 183.981 149.242 183.409 149.178C181.208 149.058 179.337 150.6 177.209 151.148C175.088 151.564 172.88 151.323 170.918 150.463C168.937 149.726 167.066 148.75 165.048 147.996C160.788 146.552 156.089 146.732 151.969 148.499C147.85 150.265 144.641 153.475 143.037 157.435C141.533 157.091 139.952 157.183 138.505 157.697C137.057 158.21 135.811 159.123 134.93 160.312C133.241 162.756 132.587 165.699 133.096 168.569C133.379 170.496 133.896 172.386 134.637 174.204C134.637 174.375 134.637 174.53 134.637 174.684C134.783 181.535 135.609 189.74 138.782 189.775C144.285 189.86 142.964 180.165 142.964 180.165C149.732 177.733 147.22 168.26 148.907 166.839C150.595 165.417 154.135 162.06 168.277 168.826C173.546 171.029 179.424 171.628 185.078 170.538H185.427H185.555C186.851 170.24 188.088 169.754 189.224 169.1C190.548 168.39 191.596 167.304 192.214 165.999C192.501 165.342 192.582 164.622 192.445 163.924C192.309 163.226 191.961 162.579 191.443 162.06C192.536 160.81 193.201 159.282 193.351 157.674Z" fill="#263238"/>
<path d="M127.41 236.554C131.94 235.749 136.361 234.208 141.698 234.002C152.938 237.316 164.998 237.316 176.237 234.002C177.631 234.173 179.575 234.345 182.033 234.602C197.019 236.315 202.779 239.227 213.546 249.11L212.372 305.808C212.372 305.808 216.04 370.316 215.728 380.731H113.231V336.983V325.078L79.4807 336.52L82.5623 319.991C82.5623 319.991 97.6581 265.177 100.024 257.795C102.812 248.836 113.102 239.124 127.41 236.554Z" fill="#7D38FF"/>
<path d="M94.87 320.95L145.403 314.236L154.997 330.303L108.04 350.07C105.426 351.188 102.587 351.772 99.7124 351.783C95.689 351.785 91.7561 350.668 88.4145 348.575C85.0728 346.483 82.4737 343.509 80.9481 340.032L79.4257 336.606L94.87 320.95Z" fill="#7D38FF"/>
<path d="M190.911 306.51L189.811 305.756C187.001 303.784 183.781 302.382 180.356 301.641C176.932 300.901 173.379 300.838 169.927 301.457C164.234 302.495 158.912 304.851 154.446 308.309L145.789 314.972L154.96 330.388L161.233 322.2C161.233 322.2 167.066 329.6 168.111 328.829C169.039 327.904 169.812 326.853 170.404 325.712L166.241 320.248L176.292 322.115L190.966 315.88L184.638 308.411L190.911 310.364V306.51Z" fill="#FFD0B8"/>
<path d="M198.101 238.182C198.101 238.182 212.372 242.721 218.37 255.551C222.277 263.91 228.036 304.18 228.036 304.18L235.282 317.233C237.02 320.366 237.926 323.844 237.923 327.373V329.36C237.932 334.422 236.065 339.33 232.64 343.252C230.654 345.537 228.197 347.427 225.415 348.81C222.633 350.193 219.583 351.04 216.444 351.303C209.199 351.902 200.449 352.159 198.578 350.172C195.277 346.644 190.324 337.188 190.324 337.188L211.436 326.722L202.265 310.998L198.101 238.182Z" fill="#7D38FF"/>
<path d="M111.562 348.597C111.562 348.597 111.819 348.425 112.369 348.168L114.79 347.072L123.851 343.115L154.832 329.909L154.63 330.508L148.687 320.608L145.018 314.441L145.459 314.664L108.462 318.09L97.4565 319.015L94.485 319.22C94.1376 319.258 93.7868 319.258 93.4395 319.22C93.7731 319.124 94.118 319.067 94.4666 319.049L97.4198 318.689L108.425 317.507L145.404 313.824H145.66L145.807 314.064C146.999 316.034 148.247 318.107 149.476 320.231L155.4 330.131L155.639 330.525L155.18 330.714L124.108 343.646L114.937 347.363L112.461 348.34C112.168 348.446 111.868 348.532 111.562 348.597Z" fill="#263238"/>
<path d="M120.531 316.274C120.274 316.274 120.054 307.846 120.054 297.432C120.054 287.017 120.274 278.59 120.531 278.59C120.788 278.59 120.989 287.017 120.989 297.432C120.989 307.846 120.788 316.274 120.531 316.274Z" fill="#263238"/>
<path d="M207.474 328.966C207.968 328.799 208.49 328.718 209.015 328.727C210.439 328.611 211.872 328.692 213.271 328.966C214.301 329.166 215.238 329.663 215.949 330.388C216.675 331.263 217.154 332.293 217.343 333.386C217.563 334.593 217.443 335.832 216.994 336.983C216.487 338.218 215.6 339.284 214.445 340.049C212.201 341.317 209.705 342.145 207.108 342.481C205.04 342.85 202.94 343.039 200.834 343.047C198.886 343.197 196.928 342.879 195.148 342.122C197.027 342.409 198.932 342.518 200.834 342.447C202.888 342.348 204.93 342.102 206.942 341.711C209.408 341.313 211.768 340.475 213.894 339.244C214.872 338.601 215.635 337.713 216.096 336.683C216.557 335.652 216.696 334.521 216.499 333.42C216.368 332.433 215.978 331.491 215.362 330.679C214.761 330.058 213.975 329.616 213.106 329.412C211.769 329.09 210.395 328.923 209.015 328.915C208.505 328.986 207.988 329.003 207.474 328.966Z" fill="#263238"/>
<path d="M215.857 351.68C214.668 352.009 213.427 352.148 212.188 352.091C209.212 352.164 206.249 351.704 203.457 350.738C201.92 350.186 200.46 349.461 199.11 348.579C198.03 347.801 197.121 346.836 196.432 345.736C195.737 344.779 195.297 343.681 195.148 342.533C195.295 342.533 195.772 343.715 196.983 345.411C197.697 346.389 198.591 347.242 199.624 347.929C200.93 348.746 202.333 349.418 203.806 349.933C206.503 350.853 209.338 351.373 212.207 351.474C213.428 351.442 214.649 351.51 215.857 351.68Z" fill="#263238"/>
<path d="M225.945 310.81C225.227 311.824 224.391 312.761 223.45 313.602C221.836 315.315 219.544 317.524 216.976 319.991C214.408 322.457 212.06 324.633 210.317 326.192C209.438 327.097 208.447 327.903 207.364 328.59C208.063 327.557 208.895 326.608 209.84 325.763C211.473 324.05 213.747 321.841 216.315 319.374C219.295 316.302 222.514 313.44 225.945 310.81Z" fill="#263238"/>
<path d="M202.944 302.022C202.493 298.459 202.352 294.867 202.522 291.282C202.368 287.685 202.527 284.081 202.999 280.508C203.458 284.082 203.611 287.685 203.457 291.282C203.591 294.869 203.419 298.46 202.944 302.022Z" fill="#263238"/>
<path d="M216.847 255.808C216.847 256.047 190.966 256.236 159.069 256.236C127.171 256.236 101.29 256.047 101.29 255.808C101.29 255.568 127.153 255.362 159.069 255.362C190.985 255.362 216.847 255.568 216.847 255.808Z" fill="#E0E0E0"/>
<path d="M219.819 264.39C219.819 264.629 192.562 264.835 158.94 264.835C125.319 264.835 98.0433 264.629 98.0433 264.39C98.0433 264.15 125.3 263.961 158.94 263.961C192.58 263.961 219.819 264.15 219.819 264.39Z" fill="#E0E0E0"/>
<path d="M212.243 247.963C212.243 248.202 188.49 248.408 159.197 248.408C129.904 248.408 106.169 248.202 106.169 247.963C106.169 247.723 129.904 247.534 159.197 247.534C188.49 247.534 212.243 247.723 212.243 247.963Z" fill="#E0E0E0"/>
<path d="M217.196 377.682C217.196 377.922 193.938 378.11 165.268 378.11C136.599 378.11 113.359 377.922 113.359 377.682C113.359 377.442 136.599 377.237 165.268 377.237C193.938 377.237 217.196 377.442 217.196 377.682Z" fill="#E0E0E0"/>
<path d="M216.407 372.166C216.407 372.406 193.479 372.594 165.177 372.594C136.874 372.594 113.946 372.406 113.946 372.166C113.946 371.926 136.893 371.738 165.177 371.738C193.461 371.738 216.407 371.926 216.407 372.166Z" fill="#E0E0E0"/>
<path d="M215.362 365.024C215.362 365.263 192.507 365.452 164.315 365.452C136.123 365.452 113.268 365.263 113.268 365.024C113.268 364.784 136.123 364.595 164.315 364.595C192.507 364.595 215.362 364.784 215.362 365.024Z" fill="#E0E0E0"/>
<path d="M140.854 335.51C139.87 334.907 139.012 334.14 138.323 333.249C136.496 331.176 135.069 328.823 134.104 326.294C133.145 323.765 132.673 321.098 132.71 318.415C132.655 317.305 132.823 316.195 133.206 315.143C132.913 322.599 135.667 329.88 140.909 335.51H140.854Z" fill="#E0E0E0"/>
<path d="M136.104 338.148C135.025 337.479 134.082 336.639 133.316 335.664C131.323 333.395 129.776 330.815 128.749 328.042C127.733 325.287 127.23 322.39 127.263 319.477C127.205 318.262 127.392 317.048 127.813 315.897C127.739 319.959 128.358 324.007 129.647 327.887C131.221 331.597 133.399 335.058 136.104 338.148Z" fill="#E0E0E0"/>
<path d="M131.555 340.306C130.354 339.659 129.291 338.811 128.418 337.805C126.176 335.476 124.482 332.734 123.448 329.754C122.406 326.78 122.038 323.636 122.365 320.522C122.429 319.23 122.759 317.962 123.338 316.788C123.484 316.788 123.136 318.244 123.026 320.573C122.888 323.597 123.329 326.619 124.328 329.497C125.349 332.366 126.901 335.044 128.914 337.411C130.473 339.244 131.665 340.186 131.555 340.306Z" fill="#E0E0E0"/>
<path d="M196.671 343.749C196.671 343.749 197.203 344.143 198.23 344.657C199.704 345.357 201.327 345.737 202.98 345.77C205.436 345.832 207.891 345.683 210.317 345.325C213.29 345.131 216.066 343.866 218.058 341.796C218.976 340.721 219.653 339.485 220.05 338.161C220.447 336.837 220.556 335.452 220.369 334.088C219.984 331.845 218.862 329.768 217.159 328.144C215.535 326.667 213.616 325.503 211.51 324.719C212.145 324.734 212.77 324.874 213.344 325.13C214.947 325.722 216.411 326.601 217.654 327.716C219.538 329.392 220.792 331.591 221.231 333.986C221.461 335.461 221.362 336.964 220.943 338.402C220.523 339.84 219.791 341.182 218.792 342.345C217.745 343.553 216.388 344.496 214.848 345.085C213.444 345.614 211.969 345.96 210.464 346.113C207.961 346.442 205.43 346.533 202.907 346.387C201.179 346.287 199.504 345.793 198.028 344.948C197.481 344.654 197.016 344.243 196.671 343.749Z" fill="#E0E0E0"/>
<path d="M215.086 321.995C215.086 321.995 215.27 321.995 215.637 321.995C216.185 322.01 216.728 322.096 217.251 322.252C219.148 322.903 220.795 324.065 221.983 325.592C223.774 327.792 225.112 330.284 225.927 332.94C226.442 334.526 226.641 336.187 226.514 337.839C226.361 339.629 225.73 341.355 224.679 342.858C222.57 345.688 219.5 347.77 215.967 348.768C213.129 349.543 210.17 349.861 207.217 349.71C205.25 349.624 203.29 349.429 201.348 349.128C200.627 349.064 199.918 348.914 199.238 348.682C199.238 348.528 202.302 348.991 207.236 349.093C210.104 349.162 212.966 348.798 215.71 348.014C219.031 347.027 221.912 345.046 223.909 342.379C224.917 341.007 225.547 339.424 225.743 337.771C225.869 336.22 225.702 334.66 225.248 333.163C224.474 330.587 223.233 328.154 221.58 325.969C220.502 324.469 218.996 323.282 217.232 322.543C215.857 322.115 215.068 322.115 215.086 321.995Z" fill="#E0E0E0"/>
<path d="M175.485 305.106L143.331 341.471L145.789 343.955L197.973 336.538L223.836 300.172L221.433 298.151L175.485 305.106Z" fill="#263238"/>
<path d="M209.584 314.698C208.58 314.697 207.6 314.979 206.772 315.508C205.943 316.037 205.306 316.788 204.943 317.661C204.391 319.479 203.296 321.112 201.788 322.372C199.459 323.554 195.46 324.496 193.351 323.537C191.241 322.577 182.822 315.486 181.336 316.274C179.851 317.062 178.603 318.843 180.071 320.402C181.538 321.961 189.352 326.705 187.866 328.281C186.38 329.857 169.964 322.92 167.433 323.537C164.901 324.153 163.416 325.609 164.901 326.551C166.387 327.493 177.539 331.433 178.181 332.803C178.181 332.803 161.306 328.675 160.683 329.669C160.059 330.662 158.995 332.221 160.683 332.803C162.37 333.386 176.916 336.949 178.181 337.531C180.27 338.328 182.448 338.902 184.675 339.244C186.972 339.803 189.237 340.472 191.461 341.248C194.876 342.356 198.605 342.264 201.953 340.991L203.659 340.34C204.955 339.846 206.053 338.986 206.799 337.88C207.546 336.775 207.904 335.479 207.823 334.174L207.474 328.967L209.309 324.53L209.584 314.698Z" fill="#FFD0B8"/>
<path d="M223.909 300.361C223.6 300.459 223.28 300.528 222.955 300.566L220.167 301.029L209.877 302.57L194.598 304.763L185.592 306.031C182.409 306.353 179.386 307.498 176.861 309.337C174.543 311.455 172.415 313.747 170.496 316.188C168.527 318.472 166.626 320.687 164.792 322.834L155.088 334.105L148.485 341.625L146.651 343.646C146.455 343.894 146.227 344.118 145.972 344.314C146.11 344.035 146.289 343.776 146.504 343.544L148.21 341.42L154.575 333.729L164.131 322.389L169.799 315.709C171.739 313.221 173.906 310.894 176.274 308.754C178.932 306.84 182.107 305.654 185.445 305.328L194.488 304.112L209.786 302.108L220.112 300.84L222.919 300.532C223.239 300.433 223.572 300.375 223.909 300.361Z" fill="#455A64"/>
<path d="M199.514 308.411C198.948 308.669 198.453 309.044 198.065 309.508C197.882 309.744 197.783 310.029 197.783 310.321C197.783 310.613 197.882 310.898 198.065 311.135C198.362 311.385 198.747 311.524 199.147 311.524C199.547 311.524 199.933 311.385 200.229 311.135C200.646 310.853 200.94 310.439 201.055 309.97C201.106 309.736 201.093 309.494 201.015 309.266C200.938 309.038 200.8 308.832 200.615 308.668C200.414 308.52 200.165 308.439 199.908 308.439C199.652 308.439 199.403 308.52 199.202 308.668" fill="#FAFAFA"/>
<path d="M436.719 424.119L-52.1079 422.475L-52.163 436.041L-23.1452 436.127L-24.1724 700.122L-13.9189 700.156L-12.9101 436.161L391.009 437.514L390 701.527L400.254 701.544L401.263 437.548L436.663 437.668L436.719 424.119Z" fill="#455A64"/>
<path d="M-13.7595 346.418L13.3689 420.416H136.135L135.236 416.613L85.5832 415.174L62.7101 346.383L-13.7595 346.418Z" fill="#E0E0E0"/>
<path d="M40.663 381.173C41.4701 384.205 40.0761 387.185 37.5448 387.819C35.0136 388.453 32.3173 386.5 31.5102 383.468C30.7031 380.436 32.0788 377.456 34.6101 376.839C37.1413 376.222 39.8376 378.141 40.663 381.173Z" fill="white"/>
<path d="M212.632 397.484C213.964 389.837 208.406 382.629 200.217 381.385C192.028 380.141 184.309 385.332 182.977 392.979C181.645 400.626 187.203 407.834 195.392 409.078C203.581 410.322 211.3 405.131 212.632 397.484Z" fill="#455A64"/>
<path d="M246.911 389.707H148.742V423.211H246.911V389.707Z" fill="#E0E0E0"/>
<path d="M186.472 398.956C181.148 399.397 175.802 399.546 170.459 399.402C165.117 399.546 159.77 399.397 154.446 398.956C159.769 398.505 165.117 398.356 170.459 398.511C175.802 398.356 181.149 398.505 186.472 398.956Z" fill="#263238"/>
<path d="M186.472 403.77C181.148 404.211 175.802 404.359 170.459 404.215C165.117 404.359 159.77 404.211 154.446 403.77C159.768 403.307 165.116 403.153 170.459 403.307C175.802 403.153 181.15 403.307 186.472 403.77Z" fill="#263238"/>
<path d="M186.472 408.566C181.149 409.017 175.802 409.166 170.459 409.011C165.117 409.166 159.769 409.017 154.446 408.566C159.77 408.125 165.117 407.976 170.459 408.121C175.802 407.976 181.148 408.125 186.472 408.566Z" fill="#263238"/>
<path d="M186.472 413.379C181.149 413.83 175.802 413.979 170.459 413.825C165.117 413.979 159.769 413.83 154.446 413.379C159.77 412.938 165.117 412.79 170.459 412.934C175.802 412.79 181.148 412.938 186.472 413.379Z" fill="#263238"/>
<path d="M204.356 422.423C203.873 417.075 203.713 411.705 203.879 406.339C203.714 400.968 203.873 395.592 204.356 390.238C204.828 395.593 204.988 400.968 204.833 406.339C204.988 411.705 204.829 417.074 204.356 422.423Z" fill="#263238"/>
<path d="M162.29 192.189C160.752 192.049 159.289 191.535 158.07 190.707C156.85 189.878 155.922 188.768 155.391 187.503C154.86 186.238 154.747 184.868 155.066 183.55C155.385 182.232 156.123 181.018 157.195 180.047C158.267 179.076 159.631 178.387 161.131 178.057C162.631 177.728 164.207 177.772 165.68 178.184C167.153 178.596 168.463 179.36 169.462 180.389C170.461 181.418 171.108 182.67 171.329 184.003C171.502 185.086 171.39 186.189 171.003 187.229C170.615 188.269 169.962 189.218 169.091 190.006C168.221 190.794 167.157 191.4 165.979 191.779C164.801 192.157 163.54 192.297 162.29 192.189ZM163.908 178.824C163.289 178.775 162.664 178.789 162.049 178.865C160.255 179.11 158.635 179.941 157.519 181.188C156.402 182.435 155.873 184.005 156.037 185.58C156.202 187.155 157.048 188.616 158.404 189.667C159.761 190.719 161.526 191.281 163.341 191.241C165.156 191.201 166.886 190.561 168.179 189.451C169.473 188.341 170.232 186.844 170.304 185.264C170.377 183.684 169.756 182.139 168.568 180.943C167.38 179.747 165.714 178.989 163.908 178.824Z" fill="#3C3750"/>
<path d="M181.241 191.92C178.105 191.619 175.591 188.559 175.538 184.797C175.478 183.005 176.066 181.242 177.218 179.756C177.695 179.111 178.342 178.573 179.105 178.189C179.868 177.804 180.725 177.583 181.605 177.544C182.484 177.56 183.345 177.761 184.115 178.131C184.885 178.5 185.541 179.026 186.027 179.664C187.221 181.128 187.858 182.881 187.85 184.677C187.893 188.651 185.173 191.897 181.783 191.93L181.241 191.92ZM182.034 178.523L181.629 178.564C180.923 178.601 180.237 178.784 179.63 179.1C179.023 179.416 178.512 179.854 178.14 180.377C177.114 181.692 176.597 183.258 176.664 184.846C176.692 188.286 179.006 191.106 181.776 191.038C184.546 190.97 186.788 188.194 186.76 184.754C186.759 183.163 186.201 181.611 185.161 180.303C184.814 179.831 184.355 179.428 183.816 179.121C183.277 178.815 182.67 178.611 182.034 178.523Z" fill="#3C3750"/>
<path d="M171.068 184.841L170.354 184.101C171.593 183.181 174.465 181.917 176.521 183.772L175.714 184.438C173.888 182.771 171.186 184.748 171.068 184.841Z" fill="#3C3750"/>
<path d="M132.767 188.902L131.696 188.265C131.926 187.724 134.063 182.907 136.7 182.461C139.337 182.014 155.273 183.972 155.969 184.06L155.905 185.397C151.282 184.826 138.865 183.46 136.957 183.788C135.048 184.116 133.336 187.581 132.767 188.902Z" fill="#3C3750"/>
</svg>
