<svg width="324" height="324" viewBox="0 0 324 324" fill="none" xmlns="http://www.w3.org/2000/svg">
<g clip-path="url(#clip0_46_1873)">
<path d="M84.0572 260.204L83.7181 258.795C83.1049 256.143 80.4908 251.705 77.1719 246.089C69.6519 233.336 59.3404 215.865 60.9756 200.421C62.1966 188.91 59.8138 183.294 57.3018 177.356C56.7424 176.022 56.1722 174.672 55.6343 173.235C54.9996 171.552 55.0049 169.336 55.0049 167.2C55.0103 164.263 55.0157 161.482 53.3374 161.138C53.1868 161.106 53.0306 161.09 52.8853 161.09C52.2237 161.09 51.5997 161.428 51.008 162.085C48.6843 164.715 47.5064 172.074 48.3832 178.475L48.5014 179.325L47.657 179.142C47.6086 179.136 42.9395 178.163 38.0607 178.163C36.5923 178.163 35.2421 178.254 34.0534 178.426L33.8813 178.448L33.7306 178.383C33.6715 178.362 28.0933 176.151 17.4966 176.151C16.8834 176.151 16.2593 176.162 15.6085 176.178H15.4955L15.3826 176.14C15.3127 176.113 8.19085 173.59 3.75313 173.59C2.2954 173.59 1.31095 173.87 0.912901 174.392C0.385753 175.08 0.547012 175.511 0.595423 175.645C0.998853 176.737 3.31728 177.646 4.68356 177.969L9.25038 179.023L4.57062 179.147C4.06499 179.163 2.52126 179.357 2.00487 180.061C1.89191 180.212 1.74677 180.492 1.90276 181.019C2.41377 182.772 6.20595 185.268 11.6549 186.398L13.2203 186.726L11.8326 187.511C11.5421 187.678 10.7191 188.302 10.7406 189.018C10.7513 189.749 11.6336 190.588 13.2042 191.379C15.8507 192.718 34.8656 198.996 37.8509 199.91C40.8901 200.846 40.8792 203.514 40.8685 206.607C40.8577 207.457 40.8526 208.371 40.9118 209.329C44.3759 271.102 55.4836 301.133 74.8698 301.133C78.1994 301.133 81.3622 300.359 83.9065 299.74C92.7067 297.594 106.923 280.327 115.417 270.01C118.284 266.524 120.479 263.862 121.732 262.662L96.6227 240.42L84.0572 260.204Z" fill="white"/>
<path d="M96.9767 240.027C96.8637 239.925 96.7184 239.871 96.5463 239.903C96.3903 239.925 96.2504 240.016 96.1697 240.145L84.2875 258.843L84.2497 258.682C83.615 255.933 80.9792 251.474 77.6388 245.815C70.1511 233.126 59.9043 215.746 61.518 200.48C62.7445 188.84 60.3508 183.165 57.8065 177.146C57.247 175.817 56.6769 174.478 56.139 173.047C55.5365 171.455 55.5418 169.298 55.5418 167.205C55.5471 164.037 55.5527 161.046 53.4494 160.611C52.3844 160.385 51.4536 160.777 50.6145 161.724C48.1993 164.462 46.9568 172.003 47.8498 178.544L47.8606 178.636L47.7046 178.598C46.5266 178.372 42.3631 177.625 38.0598 177.625C36.5698 177.625 35.1928 177.716 33.9825 177.888L33.9503 177.894L33.9126 177.877C33.3101 177.646 27.7214 175.613 17.4904 175.613C16.8718 175.613 16.2425 175.624 15.5701 175.634C15.5002 175.607 8.31365 173.058 3.7522 173.058C2.09007 173.058 0.992773 173.397 0.487141 174.069C0.0191622 174.677 -0.109925 175.274 0.0944796 175.839C0.61087 177.232 3.2412 178.189 4.56445 178.496L5.03229 178.604L4.55361 178.62C4.46217 178.62 2.33755 178.7 1.57911 179.739C1.28326 180.12 1.21865 180.605 1.3854 181.18C2.03627 183.391 6.40394 185.865 11.5463 186.93L11.7131 186.968L11.5732 187.049C11.5571 187.054 10.1747 187.856 10.2016 189.034C10.2231 189.986 11.1754 190.965 12.9666 191.863C15.6723 193.235 34.7247 199.517 37.6993 200.432C40.2329 201.212 40.3459 203.186 40.3298 206.607C40.3244 207.468 40.3192 208.398 40.3784 209.366C43.8586 271.484 55.1492 301.676 74.8688 301.676C78.263 301.676 81.4582 300.897 84.0294 300.267C93.0017 298.083 107.278 280.741 115.83 270.354C118.644 266.933 120.871 264.233 122.102 263.055C122.21 262.947 122.269 262.807 122.264 262.657C122.264 262.506 122.194 262.361 122.086 262.264L96.9767 240.027ZM114.975 269.698C106.53 279.95 92.3938 297.12 83.7658 299.224C81.2537 299.831 78.123 300.601 74.8633 300.601C55.8214 300.601 44.8914 270.731 41.4434 209.296C41.3896 208.35 41.3947 207.452 41.4001 206.602C41.4108 203.439 41.4271 200.443 38.006 199.394C35.1336 198.517 16.038 192.207 13.4453 190.9C11.8585 190.099 11.2827 189.378 11.2827 188.996C11.2666 188.63 11.7993 188.141 12.1005 187.974L13.4883 187.194C13.6819 187.081 13.7896 186.86 13.7519 186.64C13.7197 186.419 13.5529 186.242 13.3323 186.199L11.767 185.871C6.04363 184.682 2.80544 182.181 2.42352 180.863C2.3267 180.524 2.40754 180.422 2.44519 180.373C2.74642 179.959 3.88651 179.706 4.58579 179.679L9.26554 179.556C9.53988 179.55 9.76067 179.346 9.78756 179.072C9.81446 178.803 9.64218 178.555 9.37323 178.496L4.80641 177.442C3.23573 177.076 1.37476 176.188 1.10043 175.462C1.07353 175.387 0.998133 175.172 1.34239 174.714C1.44997 174.575 1.9287 174.123 3.7522 174.123C8.05545 174.123 15.1288 176.613 15.3117 176.683C15.3709 176.699 15.5485 176.705 15.6184 176.71C26.8606 176.436 32.9121 178.636 33.5199 178.878L33.6706 178.942C33.7621 178.98 33.8533 178.985 33.9448 178.98L34.1224 178.953C35.295 178.786 36.6184 178.695 38.0546 178.695C42.2556 178.695 46.3382 179.432 47.5431 179.663L48.3823 179.846C48.549 179.889 48.7371 179.835 48.8662 179.717C48.9899 179.599 49.0546 179.421 49.0277 179.249L48.9148 178.399C48.0703 172.235 49.2214 164.925 51.4215 162.439C52.0024 161.783 52.5941 161.552 53.2288 161.659C54.4768 161.918 54.4715 164.602 54.4715 167.2C54.4661 169.384 54.4606 171.648 55.133 173.418C55.6817 174.86 56.2464 176.221 56.8166 177.565C59.3017 183.439 61.6471 188.991 60.4422 200.351C58.7908 215.967 69.1454 233.524 76.7084 246.353C79.995 251.926 82.5984 256.326 83.1955 258.908L83.5238 260.317C83.5722 260.532 83.7441 260.688 83.9539 260.726C84.1744 260.769 84.3842 260.667 84.5025 260.484L96.7239 241.243L120.93 262.684C119.623 264.055 117.546 266.573 114.975 269.698Z" fill="#222222"/>
<path d="M11.2029 186.436L11.8483 187.555C12.0151 187.463 15.9956 185.36 22.1009 189.518L22.2837 189.636L22.4988 189.626C22.5364 189.615 27.0174 189.47 30.8957 190.981L31.3744 189.782C27.6897 188.335 23.6552 188.313 22.6708 188.324C15.9416 183.843 11.4019 186.318 11.2029 186.436Z" fill="#222222"/>
<path d="M15.3226 179.846C9.10979 177.302 4.64518 177.894 4.45154 177.915L4.63441 179.19C4.68282 179.19 9.01838 178.631 14.9569 181.1L15.102 181.164L15.2527 181.153C15.3172 181.143 21.2287 180.734 28.4797 184.418L29.0713 183.273C22.0732 179.706 16.3661 179.803 15.3226 179.846Z" fill="#222222"/>
<path d="M15.7257 176.678C15.8118 176.678 24.6334 177.447 33.0409 181.127L33.5734 179.949C24.9561 176.172 16.7313 175.764 16.3817 175.737L15.7257 176.678Z" fill="#222222"/>
<path d="M295.997 145.221C292.038 145.221 287.552 146.028 287.509 146.033L287.364 146.066L287.224 146.017C283.27 144.791 279.155 144.167 275.008 144.167C270.231 144.167 267.112 145.017 267.079 145.027L266.896 145.081L266.735 145.022C263.438 143.979 260.399 143.758 258.43 143.758C257.166 143.758 256.38 143.855 256.359 143.855L255.235 143.995L255.74 142.983C258.672 137.196 258.774 129.229 256.913 126.249C256.477 125.55 255.977 125.195 255.428 125.195C255.036 125.195 254.584 125.372 254.1 125.717C252.631 126.766 252.072 129.111 251.496 131.591C251.05 133.473 250.592 135.415 249.683 136.986C249.189 137.83 248.672 138.691 248.156 139.573C244.256 146.157 239.834 153.618 238.769 162.3C236.795 178.356 236.612 191.503 236.403 206.725C236.284 215.456 236.161 224.487 235.698 235.256L235.676 235.874L213.994 225.423L206.742 269.413C214.677 269.413 248.968 273.652 259.543 268.418C277.784 259.386 269.721 227.376 263.25 201.653C260.383 190.26 257.908 180.416 257.908 173.762C257.908 173.181 257.887 172.606 257.87 172.063C257.768 168.604 257.672 165.323 262.405 165.124C264.955 165.016 284.217 161.789 287.165 160.853C288.784 160.347 289.742 159.685 289.876 159.008C290.032 158.222 289.091 157.426 289.08 157.421L287.859 156.42L289.451 156.35C294.798 156.13 298.794 154.349 299.563 152.757C299.789 152.289 299.703 152.02 299.628 151.853C299.257 151.117 297.815 150.686 297.347 150.595L292.786 149.707L297.428 149.406C298.768 149.32 301.113 148.825 301.661 147.851C301.731 147.733 301.941 147.351 301.554 146.63C301.263 146.103 300.188 145.221 295.997 145.221Z" fill="white"/>
<path d="M295.997 144.683C292.329 144.683 288.23 145.361 287.401 145.506L287.374 145.501C283.356 144.263 279.193 143.629 274.997 143.629C270.043 143.629 266.923 144.511 266.923 144.511L266.902 144.516L266.88 144.506C263.513 143.44 260.425 143.22 258.419 143.22C257.666 143.22 256.924 143.252 256.289 143.317L256.16 143.338L256.214 143.231C259.226 137.292 259.307 129.078 257.365 125.969C256.456 124.506 255.235 124.253 253.777 125.281C252.136 126.459 251.539 129.003 250.953 131.51C250.522 133.339 250.071 135.221 249.205 136.717C248.855 137.324 248.484 137.948 248.113 138.583L247.666 139.342C243.745 145.958 239.302 153.462 238.231 162.24C236.246 178.345 236.069 191.492 235.859 206.725C235.746 214.896 235.628 224.143 235.16 235.041L214.214 224.944C214.068 224.869 213.891 224.869 213.735 224.949C213.59 225.03 213.477 225.175 213.455 225.337L206.199 269.327C206.172 269.483 206.215 269.644 206.323 269.762C206.425 269.881 206.575 269.951 206.731 269.951C208.571 269.951 211.825 270.182 215.951 270.472C222.605 270.94 231.507 271.57 239.764 271.57C248.026 271.57 255.659 270.94 259.769 268.907C278.397 259.687 270.285 227.461 263.755 201.502C260.904 190.152 258.43 180.346 258.43 173.773C258.43 173.37 258.424 172.972 258.419 172.584L258.403 172.052C258.284 168.2 258.419 165.834 262.41 165.661C264.987 165.554 284.351 162.31 287.31 161.369C289.155 160.799 290.215 160.013 290.387 159.115C290.623 157.991 289.435 157.007 289.408 157.007L289.279 156.899L289.456 156.888C294.518 156.684 299.068 155.005 300.037 152.994C300.273 152.493 300.295 152.042 300.091 151.611C299.531 150.498 297.525 150.084 297.438 150.062L296.965 149.971L297.444 149.938C298.757 149.858 301.403 149.374 302.124 148.109C302.403 147.609 302.371 147.028 302.022 146.377C301.425 145.253 299.407 144.683 295.997 144.683ZM297.369 148.873L292.732 149.175C292.468 149.191 292.253 149.406 292.232 149.675C292.216 149.949 292.399 150.191 292.662 150.24L297.229 151.122C297.864 151.251 298.913 151.681 299.122 152.085C299.155 152.149 299.208 152.246 299.069 152.531C298.493 153.72 295.023 155.586 289.408 155.818L287.821 155.888C287.595 155.898 287.401 156.038 287.331 156.253C287.256 156.463 287.326 156.7 287.498 156.834L288.724 157.84C288.966 158.045 289.397 158.566 289.322 158.905C289.257 159.25 288.601 159.831 286.982 160.336C284.056 161.267 264.906 164.478 262.362 164.586C257.096 164.806 257.219 168.668 257.316 172.073L257.332 172.606C257.338 172.982 257.354 173.375 257.354 173.768C257.354 180.481 259.828 190.341 262.717 201.825C269.139 227.343 277.133 259.106 259.285 267.939C251.308 271.876 229.216 270.316 216.021 269.397C212.304 269.133 209.297 268.923 207.356 268.88L214.391 226.219L235.423 236.358C235.585 236.439 235.773 236.434 235.934 236.337C236.085 236.24 236.187 236.079 236.198 235.896L236.225 235.277C236.693 224.282 236.816 214.961 236.924 206.731C237.134 191.54 237.322 178.415 239.291 162.364C240.334 153.817 244.718 146.415 248.602 139.847L249.027 139.126C249.403 138.492 249.78 137.868 250.135 137.255C251.077 135.625 251.544 133.656 252.007 131.709C252.534 129.439 253.078 127.099 254.395 126.158C255.278 125.528 255.853 125.593 256.445 126.534C258.204 129.342 258.058 137.201 255.245 142.747L254.74 143.758C254.659 143.935 254.67 144.145 254.783 144.306C254.895 144.462 255.052 144.522 255.294 144.532L256.44 144.387C256.999 144.328 257.698 144.296 258.419 144.296C260.345 144.296 263.319 144.511 266.547 145.533L266.713 145.592C266.81 145.63 266.929 145.635 267.036 145.598L267.23 145.544C267.262 145.533 270.344 144.705 274.997 144.705C279.08 144.705 283.141 145.318 287.046 146.528L287.186 146.576C287.278 146.614 287.364 146.625 287.471 146.593L287.627 146.56C288.396 146.431 292.414 145.759 295.992 145.759C300.257 145.759 300.962 146.695 301.053 146.883C301.22 147.195 301.258 147.432 301.166 147.588C300.811 148.222 298.886 148.776 297.369 148.873Z" fill="#222222"/>
<path d="M278.789 156.442C277.955 156.022 275.357 155.167 269.187 155.99L269.359 157.265C276.288 156.34 278.31 157.652 278.31 157.652L278.59 157.851L278.913 157.749C286.664 155.323 288.966 157.383 288.988 157.405L289.456 156.948L289.929 156.501C289.649 156.232 287.094 153.908 278.789 156.442Z" fill="#222222"/>
<path d="M287.019 149.551C286.74 149.535 279.887 149.11 273.378 150.638L273.679 151.885C279.983 150.412 286.836 150.831 287.078 150.831C292.431 150.003 297.304 150.638 297.352 150.643L297.53 149.368C297.326 149.336 292.425 148.696 287.019 149.551Z" fill="#222222"/>
<path d="M270.473 146.813L270.806 148.061C279.391 145.872 287.341 146.571 287.422 146.582L287.406 145.571C287.067 145.538 279.273 144.565 270.473 146.813Z" fill="#222222"/>
<path d="M86.1697 248.941C86.1697 248.941 91.7637 280.822 116.185 282.517L117.341 212.68L111.941 214.805C111.941 214.805 97.4335 220.534 86.1697 248.941Z" fill="#9B66FF"/>
<path d="M117.142 212.18L111.742 214.299C111.139 214.536 96.8848 220.442 85.6694 248.736C85.6318 248.833 85.6208 248.93 85.6369 249.032C85.6961 249.349 91.5917 281.344 116.153 283.049C116.163 283.049 116.174 283.049 116.185 283.049C116.319 283.049 116.454 283.001 116.545 282.909C116.658 282.807 116.717 282.673 116.723 282.527L117.879 212.691C117.879 212.514 117.788 212.341 117.642 212.239C117.497 212.137 117.309 212.11 117.142 212.18ZM115.658 281.936C93.2378 279.913 87.1755 251.313 86.7236 248.994C97.7077 221.389 111.903 215.397 112.134 215.3L116.787 213.471L115.658 281.936Z" fill="#222222"/>
<path d="M159.089 204.031C136.959 202.896 111.941 214.8 111.941 214.8L104.238 265.68C103.286 281.037 103.431 298.638 106.035 316.695H214.38C214.38 316.695 208.027 294.689 212.245 271.807L227.516 275.873C234.148 254.454 228.43 228.634 228.43 228.634C228.43 228.634 193.482 205.8 159.089 204.031Z" fill="#9B66FF"/>
<path d="M228.72 228.188C228.376 227.962 193.261 205.251 159.12 203.498C158.109 203.444 157.103 203.417 156.092 203.417C134.861 203.417 111.946 214.202 111.704 214.315C111.435 214.439 111.322 214.762 111.451 215.031C111.58 215.305 111.908 215.413 112.166 215.283C112.403 215.176 135.108 204.493 156.081 204.493C157.076 204.493 158.072 204.52 159.061 204.568C191.642 206.247 225.148 227.187 227.951 228.968C228.473 231.48 233.131 255.309 227.155 275.228L212.384 271.296C212.26 271.269 212.093 271.285 211.959 271.36C211.841 271.446 211.744 271.57 211.717 271.715C207.946 292.215 212.669 312.246 213.68 316.168H106.508C104.265 300.396 103.689 283.431 104.781 265.717C104.797 265.422 104.577 265.169 104.276 265.153C104.265 265.153 104.254 265.153 104.243 265.153C103.958 265.153 103.721 265.368 103.705 265.658C102.592 283.614 103.2 300.816 105.502 316.786C105.545 317.05 105.771 317.244 106.04 317.244H214.385C214.552 317.244 214.713 317.163 214.821 317.034C214.918 316.899 214.944 316.722 214.901 316.56C214.842 316.34 208.737 294.775 212.68 272.495L227.381 276.411C227.628 276.459 227.94 276.32 228.032 276.051C234.637 254.744 229.016 228.796 228.962 228.537C228.919 228.387 228.833 228.263 228.72 228.188Z" fill="#222222"/>
<path d="M199.89 204.961C183.091 197.635 178.583 169.82 178.583 169.82L171.052 174.171C171.052 174.171 169.525 205.617 175.409 205.617C190.239 205.617 188.319 242.179 196.275 242.179C204.23 242.179 204.042 231.802 204.042 231.802C212.901 231.797 216.699 212.298 199.89 204.961Z" fill="#222222"/>
<path d="M200.147 204.375C183.865 197.269 179.266 169.992 179.223 169.723L179.072 168.787L170.417 173.795L170.396 174.144C170.342 175.225 169.158 200.814 173.602 205.418C174.129 205.978 174.742 206.257 175.409 206.257C183.456 206.257 186.312 217.941 188.83 228.247C190.825 236.385 192.402 242.813 196.274 242.813C198.431 242.813 200.233 242.109 201.621 240.699C204.181 238.123 204.623 233.986 204.682 232.41C208.141 232.071 210.938 229.048 211.9 224.492C213.358 217.677 210.287 208.802 200.147 204.375ZM210.631 224.234C209.733 228.435 207.151 231.152 204.042 231.152H203.385L203.396 231.808C203.396 231.862 203.445 237.036 200.696 239.796C199.555 240.941 198.066 241.522 196.274 241.522C193.429 241.522 191.81 234.922 190.104 227.946C187.598 217.704 184.483 204.966 175.409 204.966C175.102 204.966 174.833 204.827 174.538 204.525C171.229 201.088 171.348 182.062 171.687 174.553L178.104 170.847C179.056 175.833 184.231 198.84 199.626 205.553C209.098 209.689 211.976 217.914 210.631 224.234Z" fill="#222222"/>
<path d="M178.744 139.309C178.276 137.335 177.787 135.297 176.851 133.57C174.005 128.32 166.41 125.195 156.512 125.195C146.502 125.195 137.309 128.438 134.157 133.08C127.772 142.483 137.39 160.056 137.487 160.234L137.804 160.804L137.207 161.068C132.42 163.214 131.053 167.259 133.35 172.477C135.83 178.098 140.413 178.942 142.92 178.942C143.689 178.942 144.173 178.856 144.2 178.851L144.921 178.722V179.442C144.921 197.726 141.989 206.467 141.892 206.752C141.881 206.795 141.08 211.19 143.963 214.638C146.346 217.478 150.52 218.925 156.378 218.925C166.512 218.925 172.983 206.397 173.666 205.004C173.284 192.433 171.461 185.58 171.429 185.516L171.267 184.908L171.88 184.779C178.792 183.208 183.8 178.227 185.99 170.75C188.448 162.337 186.829 151.875 182.375 147.443C180.169 145.248 179.449 142.23 178.744 139.309Z" fill="white"/>
<path d="M179.272 139.186C178.825 137.282 178.309 135.125 177.324 133.312C174.377 127.89 166.598 124.662 156.513 124.662C146.33 124.662 136.96 127.997 133.711 132.785C127.412 142.074 136.008 158.62 137.014 160.492L137.046 160.551L136.981 160.584C131.957 162.832 130.451 167.248 132.85 172.697C135.454 178.609 140.273 179.486 142.914 179.486C143.753 179.486 144.292 179.389 144.292 179.389L144.383 179.373V179.448C144.383 197.839 141.414 206.494 141.371 206.628C141.354 206.677 140.445 211.292 143.544 214.993C146.034 217.968 150.348 219.468 156.368 219.468C166.803 219.468 173.419 206.704 174.14 205.251C174.183 205.171 174.199 205.09 174.194 204.999C173.812 192.352 171.951 185.408 171.945 185.392L171.924 185.327L171.994 185.311C179.099 183.692 184.247 178.582 186.495 170.906C189.007 162.316 187.324 151.622 182.746 147.066C180.665 144.984 179.96 142.053 179.272 139.186ZM185.463 170.594C183.327 177.877 178.459 182.729 171.762 184.252L171.144 184.381C171.004 184.413 170.869 184.504 170.799 184.628C170.719 184.746 170.697 184.902 170.735 185.042L170.902 185.666C170.918 185.731 172.72 192.379 173.112 204.88C172.176 206.741 165.921 218.387 156.368 218.387C150.676 218.387 146.642 217.005 144.378 214.288C141.667 211.05 142.403 206.93 142.403 206.93C142.425 206.838 145.453 198.017 145.453 179.443V178.727C145.453 178.571 145.384 178.415 145.271 178.318C145.141 178.211 144.98 178.168 144.824 178.195L144.103 178.318C144.092 178.324 143.635 178.405 142.914 178.405C140.542 178.405 136.196 177.608 133.835 172.256C131.645 167.281 132.882 163.585 137.411 161.557L138.009 161.294C138.143 161.229 138.256 161.116 138.304 160.971C138.353 160.831 138.342 160.67 138.272 160.541L137.944 159.96C137.557 159.239 128.542 142.295 134.588 133.382C137.648 128.874 146.658 125.727 156.502 125.727C166.19 125.727 173.618 128.756 176.372 133.823C177.292 135.507 177.755 137.502 178.223 139.471C178.943 142.451 179.691 145.528 181.977 147.819C186.313 152.128 187.873 162.343 185.463 170.594Z" fill="#222222"/>
<path d="M172.036 153.957C170.863 154.107 169.841 155.113 169.007 156.953L170.196 157.485C170.82 156.108 171.514 155.334 172.197 155.242C172.972 155.14 173.601 155.904 173.612 155.915L174.623 155.108C174.575 155.043 173.504 153.785 172.036 153.957Z" fill="#222222"/>
<path d="M167.28 168.646C167.28 168.646 176.634 173.17 178.705 166.398C179.749 162.977 177.452 159.098 167.28 168.646Z" fill="#222222"/>
<path d="M176.866 161.993C174.58 161.993 171.213 164.08 166.834 168.178L166.151 168.819L166.99 169.222C167.125 169.292 170.223 170.766 173.348 170.766C176.42 170.766 178.491 169.319 179.325 166.586C179.76 165.166 179.653 163.816 179.007 162.971C178.674 162.536 178.033 161.993 176.866 161.993ZM178.087 166.215C177.409 168.41 175.86 169.48 173.348 169.48C171.476 169.48 169.545 168.856 168.464 168.442C173.375 163.972 175.828 163.283 176.872 163.283C177.383 163.283 177.732 163.434 177.963 163.741C178.351 164.252 178.394 165.204 178.087 166.215Z" fill="#222222"/>
<path d="M161.073 183.203L160.492 184.349C163.467 185.86 166.339 186.323 168.749 186.323C172.418 186.323 174.994 185.247 175.166 185.166L174.65 183.983C174.58 184.015 168.05 186.742 161.073 183.203Z" fill="#222222"/>
<path d="M134.468 166.237C133.748 167.603 133.839 169.282 134.738 171.256L135.921 170.723C135.2 169.136 135.103 167.835 135.62 166.85C136.384 165.392 138.298 165.021 138.325 165.021L138.083 163.752C137.986 163.768 135.539 164.225 134.468 166.237Z" fill="#222222"/>
<path d="M134.964 169.341L135.518 170.519C138.74 169.05 140.424 170.831 140.499 170.906L140.994 170.476L141.478 170.051C141.381 169.943 139.09 167.469 134.964 169.341Z" fill="#222222"/>
<path d="M135.367 206.618C137.046 206.16 137.879 205.918 137.379 205.918C136.621 205.918 135.959 206.182 135.367 206.618Z" fill="#222222"/>
<path d="M140.88 114.367C117.266 121.451 118.272 137.927 118.272 137.927C102.942 144.786 109.381 163.365 110.629 176.022C112.113 191.105 108.778 197.016 90.3175 203.105C71.8566 209.205 80.6779 218.947 80.6779 218.947C71.4475 231.539 88.7951 242.319 88.7951 242.319C88.7951 242.319 98.3699 220.421 111.947 214.799C123.06 210.195 130.617 208.511 136.142 207.01C128.961 212.363 133.683 247.359 145.91 247.359C155.49 247.359 156.383 237.526 156.383 237.526C156.383 237.526 171.122 231.706 157.954 217.048C141.526 198.759 150.444 176.253 144.915 178.722C142.387 179.857 138.61 179.222 135.281 175.586C130.994 170.906 130.994 163.139 137.798 160.804C152.881 160.804 138.896 134.21 138.896 134.21C162.897 122.204 174.871 141.176 185.57 139.632C185.564 116.432 162.273 107.95 140.88 114.367Z" fill="#222222"/>
<path d="M148.218 149.906L149.396 150.46C150.902 147.335 153.43 143.752 159.605 143.752V142.461C152.618 142.456 149.762 146.706 148.218 149.906Z" fill="#222222"/>
<path d="M156.255 151.51C155.136 151.876 154.523 153.07 154.889 154.183C155.26 155.291 156.476 155.894 157.594 155.528C158.713 155.168 159.321 153.968 158.955 152.86C158.59 151.746 157.38 151.144 156.255 151.51Z" fill="#222222"/>
<path d="M156.05 150.891C154.592 151.369 153.791 152.935 154.28 154.376C154.646 155.517 155.722 156.281 156.921 156.281C157.223 156.281 157.508 156.232 157.798 156.141C159.256 155.667 160.058 154.102 159.573 152.655C159.105 151.24 157.486 150.434 156.05 150.891ZM157.39 154.914C156.62 155.162 155.76 154.731 155.512 153.978C155.254 153.204 155.684 152.37 156.459 152.117C156.609 152.063 156.766 152.042 156.927 152.042C157.562 152.042 158.137 152.445 158.336 153.053C158.594 153.828 158.164 154.667 157.39 154.914Z" fill="#222222"/>
<path d="M169.982 140.17L170.682 141.262C174.678 138.766 176.103 139.659 179.234 141.633L179.697 141.924L180.391 140.832L179.928 140.541C176.658 138.481 174.684 137.233 169.982 140.17Z" fill="#222222"/>
<path d="M175.156 145.345C174.032 145.711 173.43 146.91 173.79 148.018C174.156 149.132 175.372 149.734 176.49 149.369C177.609 149.003 178.223 147.803 177.857 146.695C177.486 145.582 176.275 144.985 175.156 145.345Z" fill="#222222"/>
<path d="M174.952 144.737C173.494 145.216 172.693 146.776 173.172 148.217C173.548 149.358 174.619 150.116 175.824 150.116C176.12 150.116 176.41 150.073 176.695 149.987C178.158 149.508 178.954 147.948 178.476 146.496C178.002 145.076 176.378 144.264 174.952 144.737ZM176.292 148.761C175.522 149.008 174.662 148.572 174.414 147.819C174.156 147.045 174.581 146.211 175.361 145.958C175.506 145.905 175.673 145.883 175.824 145.883C176.469 145.883 177.034 146.286 177.238 146.894C177.486 147.669 177.066 148.503 176.292 148.761Z" fill="#222222"/>
<path d="M305.023 94.9645C287.568 91.6887 271.054 84.0612 257.278 72.8996L256.993 72.663L247.445 105.335L247.563 105.432C268.434 122.608 294.748 131.096 321.655 129.326L321.81 129.321L321.864 129.181C323.322 125.582 323.785 121.903 323.231 118.256C321.337 105.674 307.89 96.7235 305.023 94.9645Z" fill="#1DCD9F"/>
<path d="M305.303 94.507C305.249 94.4694 305.19 94.4479 305.125 94.4317C287.751 91.172 271.323 83.5821 257.628 72.4851L257.338 72.2485C257.198 72.1355 257.004 72.0925 256.837 72.1517C256.66 72.2054 256.52 72.3399 256.482 72.5121L246.935 105.184C246.87 105.394 246.94 105.62 247.112 105.755L247.23 105.857C266.391 121.623 290.107 130.1 314.668 130.1C316.997 130.1 319.337 130.025 321.682 129.869L321.838 129.864C322.058 129.858 322.247 129.724 322.322 129.519L322.376 129.396C323.866 125.706 324.334 121.935 323.769 118.186C321.822 105.233 308.041 96.1907 305.303 94.507ZM321.445 128.809C294.765 130.536 268.747 122.112 248.059 105.147L257.289 73.5986C271.038 84.6418 287.46 92.1994 304.824 95.4753C307.68 97.2396 320.838 105.991 322.715 118.342C323.231 121.838 322.812 125.351 321.445 128.809Z" fill="#222222"/>
<path d="M289.386 98.0574C287.568 97.4818 285.615 97.6648 283.743 98.59C281.145 99.8756 279.079 102.409 278.09 105.534C277.234 108.229 277.272 111.026 278.213 113.42C279.139 115.792 280.838 117.481 282.995 118.164C284.803 118.74 286.756 118.557 288.617 117.632C291.22 116.341 293.286 113.807 294.281 110.687C295.141 107.993 295.098 105.19 294.157 102.796C293.232 100.43 291.543 98.7405 289.386 98.0574Z" fill="#222222"/>
<path d="M289.272 100.397L288.051 100.015L287.416 102.011C285.335 101.704 283.834 102.796 283.355 104.313C282.801 106.018 283.479 107.341 285.206 108.772C286.663 109.999 287.212 110.714 286.9 111.72C286.658 112.489 285.814 113.189 284.329 112.726C283.108 112.333 282.452 111.666 282.129 111.306L281.247 112.419C281.688 112.925 282.382 113.474 283.522 113.882L282.93 115.744L284.13 116.126L284.738 114.184C286.61 114.458 288.116 113.608 288.627 112.011C289.165 110.348 288.234 109.079 286.507 107.68C285.27 106.653 284.732 105.771 285.066 104.706C285.421 103.608 286.588 103.119 287.955 103.549C289.025 103.888 289.907 104.571 290.456 105.254L291.322 104.109C290.805 103.415 289.762 102.705 288.659 102.334L289.272 100.397Z" fill="#1DCD9F"/>
<path d="M269.02 95.9862C267.132 95.3837 265.11 96.4326 264.507 98.3261C263.905 100.22 264.959 102.242 266.847 102.845C268.746 103.442 270.763 102.398 271.36 100.51C271.968 98.6112 270.919 96.5887 269.02 95.9862Z" fill="#222222"/>
<path d="M306.62 108.724C304.727 108.122 302.704 109.171 302.107 111.064C301.505 112.957 302.554 114.98 304.447 115.582C306.341 116.179 308.363 115.136 308.96 113.243C309.563 111.344 308.514 109.321 306.62 108.724Z" fill="#222222"/>
<path d="M311.176 98.9021C282.958 96.5299 259.489 78.4832 259.258 78.3003C259.123 78.1873 258.93 78.1604 258.763 78.2088C258.596 78.268 258.461 78.3971 258.418 78.5693L250.769 104.05C250.71 104.249 250.769 104.464 250.925 104.599C251.178 104.83 276.18 126.814 315.307 126.814C316.598 126.814 317.9 126.793 319.218 126.739C319.449 126.733 319.648 126.572 319.713 126.346C319.853 125.835 323.053 113.646 311.558 99.1011C311.461 98.9881 311.321 98.9129 311.176 98.9021ZM318.75 125.69C317.588 125.733 316.448 125.749 315.302 125.749C278.708 125.749 254.621 106.336 251.899 104.034L259.215 79.6235C263.136 82.496 284.991 97.7026 310.853 99.9564C320.719 112.576 319.18 123.544 318.75 125.69Z" fill="#222222"/>
<path d="M43.4071 76.4817C23.3055 94.55 10.9821 119.304 8.70678 146.173L8.69037 146.323L8.81972 146.404C12.1601 148.384 15.7262 149.39 19.4216 149.39C32.1484 149.39 43.0089 137.427 45.1767 134.855C51.0237 118.089 61.0341 102.904 74.1321 90.946L74.4066 90.6986L43.5308 76.3741L43.4071 76.4817Z" fill="#1DCD9F"/>
<path d="M43.7505 75.8849C43.5515 75.7989 43.3255 75.8311 43.1642 75.9764L43.0512 76.0893C22.8421 94.249 10.4544 119.127 8.17367 146.125L8.15725 146.275C8.13574 146.485 8.23813 146.684 8.41564 146.797L8.54991 146.878C11.9764 148.906 15.6287 149.933 19.421 149.933C32.5136 149.933 43.5139 137.669 45.5848 135.211C45.6278 135.157 45.6657 135.103 45.6872 135.044C51.502 118.353 61.4693 103.248 74.492 91.3551L74.7661 91.1076C74.8952 90.9893 74.9598 90.8064 74.9329 90.6289C74.906 90.4514 74.793 90.2954 74.6263 90.2201L43.7505 75.8849ZM44.7026 134.581C42.5295 137.147 31.9058 148.852 19.421 148.852C15.8869 148.852 12.4661 147.9 9.2548 146.039C11.5517 119.439 23.7512 94.9376 43.6215 77.0091L73.4431 90.8441C60.4688 102.791 50.5335 117.901 44.7026 134.581Z" fill="#222222"/>
<path d="M38.7478 106.643C36.2089 105.395 33.4332 105.018 30.932 105.588C28.4469 106.153 26.5319 107.579 25.526 109.606C24.6869 111.312 24.5795 113.27 25.2088 115.254C26.0964 118.025 28.291 120.44 31.2334 121.887C33.7669 123.135 36.5425 123.511 39.0492 122.941C41.5343 122.376 43.4491 120.951 44.4496 118.928C45.2887 117.218 45.4018 115.26 44.767 113.275C43.8849 110.51 41.6847 108.095 38.7478 106.643Z" fill="#222222"/>
<path d="M39.1784 112.027C37.5701 111.236 36.166 111.71 34.4931 113.2C33.0622 114.453 32.2662 114.889 31.3249 114.426C30.5987 114.077 30.0286 113.141 30.7172 111.747C31.282 110.591 32.0459 110.048 32.4493 109.779L31.4756 108.735C30.9054 109.106 30.2547 109.709 29.6899 110.774L27.936 109.913L27.3766 111.032L29.2056 111.93C28.6569 113.732 29.2755 115.362 30.7763 116.094C32.3469 116.874 33.7346 116.137 35.3752 114.647C36.5748 113.576 37.5324 113.178 38.533 113.662C39.5604 114.173 39.8721 115.405 39.2428 116.691C38.7425 117.702 37.9411 118.471 37.1826 118.912L38.1833 119.94C38.9525 119.531 39.8076 118.6 40.3347 117.568L42.1638 118.466L42.7232 117.326L40.8407 116.4C41.4539 114.388 40.5985 112.732 39.1784 112.027Z" fill="#1DCD9F"/>
<path d="M28.9696 128.821C27.1892 127.944 25.0321 128.681 24.1553 130.461C23.2731 132.242 24.0101 134.393 25.7906 135.276C27.5711 136.152 29.7228 135.415 30.605 133.64C31.4817 131.854 30.7501 129.697 28.9696 128.821Z" fill="#222222"/>
<path d="M47.9088 94.2974C46.1283 93.4206 43.9713 94.1576 43.0892 95.9327C42.2177 97.7131 42.9493 99.8701 44.7297 100.747C46.5102 101.629 48.6673 100.892 49.5441 99.1117C50.4209 97.3259 49.6892 95.1742 47.9088 94.2974Z" fill="#222222"/>
<path d="M29.9157 137.943C29.9157 137.943 28.603 145.028 19.4209 149.39C35.671 149.535 42.0776 140.229 45.176 134.856C38.748 141.009 29.9157 137.943 29.9157 137.943Z" fill="#222222"/>
<path d="M44.7988 134.463C38.6936 140.31 30.1731 137.47 30.0924 137.432C29.9418 137.389 29.7696 137.395 29.6459 137.481C29.5114 137.556 29.4149 137.691 29.3826 137.841C29.3718 137.911 27.9841 144.721 19.1839 148.906C18.958 149.014 18.8394 149.256 18.8878 149.503C18.9416 149.75 19.157 149.923 19.4098 149.923C19.5389 149.928 19.6732 149.928 19.7969 149.928C35.294 149.928 41.9587 141.494 45.638 135.119C45.7671 134.888 45.7132 134.592 45.5034 134.426C45.2936 134.27 44.9978 134.28 44.7988 134.463ZM21.6689 148.809C27.9463 145.119 29.8288 140.273 30.3022 138.616C32.1042 139.089 37.9351 140.262 43.1474 137.093C39.5112 142.451 33.406 148.255 21.6689 148.809Z" fill="#222222"/>
<path d="M44.2987 79.8495C44.1158 79.7688 43.8899 79.7903 43.7231 79.9248C43.4488 80.1507 16.2794 103.012 11.6211 144.135C11.5942 144.371 11.7177 144.592 11.9383 144.689C12.1965 144.802 15.5047 146.232 20.9268 146.232C25.8325 146.232 32.4542 145.065 40.1032 140.703C40.2269 140.628 40.3236 140.504 40.3612 140.364C46.9291 112.818 68.2786 92.3074 68.4884 92.103C68.6175 91.9847 68.6768 91.8017 68.6499 91.6296C68.623 91.4521 68.5099 91.3015 68.3485 91.2262L44.2987 79.8495ZM39.3717 139.874C25.413 147.755 14.8001 144.597 12.7453 143.839C17.2314 105.561 41.3833 83.3997 44.1536 80.9683L67.1974 91.8555C63.7656 95.3143 45.4716 114.641 39.3717 139.874Z" fill="#222222"/>
<path d="M239.598 39.6299C229.114 32.4112 213.386 36.1066 210.137 36.9888C195.807 47.4833 178.949 54.3094 161.386 56.7299L161.021 56.7784L178.325 86.0889L178.486 86.0674C205.285 82.5871 229.474 69.1932 246.596 48.3547L246.693 48.2418L246.623 48.1019C245.004 44.5733 242.637 41.7277 239.598 39.6299Z" fill="#1DCD9F"/>
<path d="M239.903 39.1891C229.145 31.7768 213.11 35.6281 209.996 36.4673C209.931 36.4834 209.878 36.5157 209.818 36.5533C195.575 46.9941 178.797 53.7878 161.321 56.1923L160.955 56.2407C160.777 56.2676 160.616 56.3752 160.541 56.5419C160.46 56.7033 160.465 56.8916 160.562 57.053L177.867 86.3635C177.964 86.5302 178.141 86.627 178.329 86.627C178.351 86.627 178.378 86.627 178.399 86.627L178.561 86.6055C205.504 83.1037 229.812 69.6453 247.009 48.71L247.106 48.597C247.246 48.4357 247.278 48.2044 247.187 48.0161L247.122 47.8816C245.455 44.2615 243.023 41.3407 239.903 39.1891ZM178.609 85.5082L161.902 57.1982C179.367 54.7131 196.118 47.8978 210.378 37.4786C213.627 36.6071 229.038 33.0085 239.296 40.0659C242.206 42.0776 244.481 44.794 246.068 48.1506C229.086 68.7524 205.139 82.0118 178.609 85.5082Z" fill="#222222"/>
<path d="M208.425 50.2643C206.058 49.3176 203.67 49.409 201.696 50.5117C200.034 51.4423 198.84 52.9861 198.237 54.9871C197.398 57.7681 197.834 61.0009 199.437 63.8625C200.814 66.3261 202.89 68.2142 205.273 69.1609C207.64 70.1076 210.028 70.0162 212.002 68.9134C213.664 67.9882 214.859 66.4391 215.466 64.4489C216.306 61.6625 215.87 58.4297 214.272 55.568C212.89 53.1044 210.813 51.2217 208.425 50.2643Z" fill="#222222"/>
<path d="M211.357 60.6082C210.502 59.0806 208.942 58.8977 206.753 59.1881C205.161 59.3925 204.144 59.1774 203.595 58.2038C203.036 57.1979 203.482 56.0091 204.725 55.3098C205.709 54.7612 206.812 54.5837 207.683 54.6536L207.441 53.2335C206.586 53.1367 205.349 53.4164 204.321 53.9704L203.326 52.19L202.218 52.8086L203.24 54.6428C201.589 55.9499 201.358 57.795 202.132 59.1828C203.009 60.7481 204.434 61.1569 206.661 60.8772C208.549 60.6513 209.448 60.7534 209.959 61.6625C210.357 62.3672 210.298 63.4591 208.942 64.2176C207.818 64.8469 206.882 64.863 206.398 64.8577L206.602 66.267C207.28 66.2831 208.157 66.154 209.227 65.6054L210.185 67.3105L211.277 66.7027L210.282 64.9222C211.761 63.7603 212.175 62.0713 211.357 60.6082Z" fill="#1DCD9F"/>
<path d="M221.454 46.2517C219.716 47.2253 219.098 49.4146 220.066 51.1467C221.034 52.8787 223.229 53.4973 224.955 52.5291C226.687 51.5608 227.311 49.3662 226.338 47.6395C225.375 45.9075 223.186 45.2888 221.454 46.2517Z" fill="#222222"/>
<path d="M186.269 63.9487C184.537 64.9169 183.913 67.1062 184.886 68.8382C185.855 70.5703 188.044 71.1943 189.776 70.2261C191.508 69.2525 192.132 67.0632 191.158 65.3311C190.19 63.599 188.001 62.9805 186.269 63.9487Z" fill="#222222"/>
<path d="M210.141 36.9893C218.931 35.5693 224.46 43.1053 224.46 43.1053C224.46 43.1053 229.565 38.0167 239.597 39.6304C226.294 30.2924 215.741 34.3267 210.141 36.9893Z" fill="#222222"/>
<path d="M209.91 36.5046C209.668 36.6176 209.55 36.8919 209.625 37.1447C209.711 37.4029 209.975 37.5804 210.222 37.5159C218.603 36.1603 223.971 43.3468 224.025 43.4221C224.116 43.5458 224.256 43.6265 224.412 43.6372C224.428 43.6372 224.439 43.6372 224.455 43.6372C224.595 43.6372 224.735 43.5835 224.832 43.4866C224.885 43.4382 229.92 38.6025 239.511 40.1624C239.748 40.2054 240.001 40.0655 240.092 39.8342C240.189 39.5976 240.108 39.334 239.904 39.1888C227.005 30.1304 216.602 33.3041 209.91 36.5046ZM224.525 42.3302C223.304 40.9101 219.162 36.6337 213.084 36.2948C219.114 33.9442 227.441 32.6317 237.419 38.8338C230.195 38.312 225.859 41.2436 224.525 42.3302Z" fill="#222222"/>
<path d="M217.629 35.0528C217.489 35.0689 217.328 35.0905 217.22 35.1873C196.193 54.1485 166.974 58.9304 166.678 58.9789C166.506 59.0057 166.355 59.1133 166.28 59.2801C166.199 59.4415 166.205 59.6243 166.297 59.7803L179.658 82.7812C179.76 82.948 179.938 83.0502 180.126 83.0502C180.142 83.0502 180.158 83.0502 180.174 83.0502C180.529 83.0179 215.87 79.6022 243.034 48.3767C243.19 48.2046 243.212 47.9464 243.088 47.7474C242.814 47.2902 236.106 36.6181 217.629 35.0528ZM241.953 47.9841C216.537 76.9664 184.074 81.5171 180.422 81.9421L167.62 59.9041C172.402 59.0112 198.436 53.4707 217.769 36.1448C233.728 37.5756 240.678 46.2036 241.953 47.9841Z" fill="#222222"/>
<path d="M148.417 7.06527C122.361 14.2625 100.285 30.9053 86.246 53.933L86.1653 54.0621L86.2513 54.1858C88.3599 57.4455 91.0978 59.936 94.4059 61.5874C105.793 67.2731 120.85 61.4153 123.942 60.0813C136.659 47.6879 152.398 38.5704 169.449 33.7185L169.804 33.6271L148.573 7.02222L148.417 7.06527Z" fill="#1DCD9F"/>
<path d="M148.998 6.68345C148.858 6.51132 148.621 6.43603 148.427 6.50595L148.277 6.55438C122.091 13.7892 99.903 30.5127 85.7937 53.6588L85.713 53.7879C85.6108 53.9654 85.6161 54.1914 85.7291 54.3635L85.8098 54.4818C87.9668 57.8222 90.7854 60.3773 94.1742 62.0717C97.8589 63.9113 101.909 64.5675 105.809 64.5675C114.308 64.5675 122.14 61.4477 124.168 60.5763C124.227 60.5494 124.286 60.5117 124.324 60.4633C136.986 48.1345 152.639 39.06 169.594 34.235L169.949 34.1382C170.126 34.0898 170.266 33.9607 170.32 33.7886C170.379 33.6164 170.347 33.4281 170.229 33.2829L148.998 6.68345ZM123.641 59.6296C120.558 60.9528 105.825 66.6923 94.6477 61.1088C91.4848 59.5328 88.849 57.1606 86.8049 54.0515C100.742 31.2819 122.592 14.8005 148.379 7.63018L168.873 33.3206C151.935 38.2209 136.303 47.3115 123.641 59.6296Z" fill="#222222"/>
<path d="M124.265 27.5435C121.785 26.9411 119.435 27.3606 117.638 28.7269C116.126 29.8834 115.153 31.5778 114.836 33.638C114.389 36.5104 115.271 39.6572 117.256 42.266C118.967 44.5198 121.285 46.0959 123.781 46.7037C126.255 47.3062 128.606 46.8866 130.402 45.5203C131.919 44.3638 132.888 42.664 133.205 40.6039C133.651 37.7368 132.764 34.5901 130.779 31.9759C129.074 29.7274 126.755 28.1514 124.265 27.5435Z" fill="#222222"/>
<path d="M128.761 36.9894C127.68 35.5586 126.206 35.3542 124.044 35.9459C122.209 36.43 121.3 36.4623 120.666 35.6285C120.176 34.9884 120.085 33.9018 121.317 32.9605C122.339 32.1751 123.264 32.0299 123.748 31.9654L123.344 30.6045C122.672 30.6798 121.822 30.9272 120.832 31.6211L119.649 30.0665L118.648 30.825L119.88 32.4495C118.589 33.8104 118.412 35.5424 119.423 36.871C120.483 38.2696 122.053 38.232 124.183 37.6349C125.733 37.21 126.776 37.2853 127.449 38.1674C128.148 39.0819 127.874 40.3244 126.739 41.1904C125.84 41.8736 124.775 42.2017 123.904 42.2609L124.334 43.6272C125.2 43.6003 126.383 43.1538 127.325 42.4653L128.557 44.0898L129.568 43.3152L128.304 41.6423C129.745 40.1092 129.724 38.2535 128.761 36.9894Z" fill="#1DCD9F"/>
<path d="M107.1 46.7736C105.514 47.9731 105.207 50.2323 106.412 51.8084C107.617 53.3898 109.87 53.6965 111.452 52.4969C113.033 51.292 113.345 49.0382 112.135 47.4567C110.93 45.8753 108.677 45.5687 107.1 46.7736Z" fill="#222222"/>
<path d="M139.455 24.3266C137.873 25.5315 137.562 27.7907 138.772 29.3667C139.971 30.9482 142.231 31.2548 143.801 30.0552C145.383 28.8503 145.695 26.5965 144.49 25.0151C143.29 23.4336 141.036 23.127 139.455 24.3266Z" fill="#222222"/>
<path d="M108.913 56.0419C108.913 56.0419 104.567 61.7921 94.4113 61.593C108.886 68.9785 118.773 63.508 123.948 60.0869C115.438 62.7227 108.913 56.0419 108.913 56.0419Z" fill="#222222"/>
<path d="M109.294 55.6597C109.181 55.5468 109.031 55.4715 108.88 55.5037C108.724 55.5145 108.574 55.5898 108.482 55.7135C108.445 55.7673 104.303 61.0603 94.9216 61.0603C94.7548 61.0603 94.5883 61.0549 94.4216 61.0549C94.1634 61.0065 93.9482 61.2109 93.889 61.4584C93.8245 61.7004 93.9426 61.9586 94.1632 62.0662C99.4938 64.788 104.217 65.81 108.369 65.81C115.163 65.81 120.408 63.0667 124.248 60.5278C124.469 60.3825 124.549 60.0921 124.436 59.85C124.318 59.6133 124.055 59.5004 123.791 59.5649C115.658 62.0877 109.354 55.7296 109.294 55.6597ZM96.6751 62.0769C103.942 61.5821 107.783 58.0857 108.956 56.8108C110.354 58.048 115.109 61.6789 121.128 61.184C115.48 64.3577 107.428 66.8213 96.6751 62.0769Z" fill="#222222"/>
<path d="M147.706 10.4813C147.582 10.3145 147.367 10.2392 147.163 10.2877C146.819 10.3683 112.301 18.6951 89.7738 53.4116C89.6501 53.6106 89.6606 53.8688 89.8112 54.0463C90.134 54.4336 97.4713 63.1262 114.033 63.1262C114.926 63.1262 115.846 63.0993 116.793 63.0455C116.938 63.0401 117.078 62.9648 117.175 62.8572C135.351 41.1419 163.607 32.3149 163.892 32.2342C164.059 32.1804 164.198 32.0513 164.247 31.8846C164.301 31.7125 164.263 31.5296 164.15 31.3897L147.706 10.4813ZM116.502 61.9858C100.489 62.7981 92.4203 55.2297 90.9088 53.6483C112.016 21.3954 143.521 12.3478 147.082 11.4173L162.838 31.4435C158.228 32.998 133.226 42.1317 116.502 61.9858Z" fill="#222222"/>
</g>
<defs>
<clipPath id="clip0_46_1873">
<rect width="324" height="324" fill="white"/>
</clipPath>
</defs>
</svg>
