<svg width="243" height="248" viewBox="0 0 243 248" fill="none" xmlns="http://www.w3.org/2000/svg">
<g clip-path="url(#clip0_46_2379)">
<path d="M37.8989 94.7948C58.6 94.7948 75.3815 77.6679 75.3815 56.5409C75.3815 35.4139 58.6 18.287 37.8989 18.287C17.1978 18.287 0.41626 35.4139 0.41626 56.5409C0.41626 77.6679 17.1978 94.7948 37.8989 94.7948Z" fill="#FBF3C1"/>
<path d="M37.8989 17.8619C17.0002 17.8619 -0.000366211 35.2165 -0.000366211 56.5409C-0.000366211 77.8653 17.0002 95.2198 37.8989 95.2198C58.7975 95.2198 75.7979 77.8653 75.7979 56.5409C75.7979 35.2122 58.7975 17.8619 37.8989 17.8619ZM37.8989 94.3697C17.4625 94.3697 0.832632 77.402 0.832632 56.5409C0.832632 35.6797 17.4625 18.712 37.8989 18.712C58.3352 18.712 74.9649 35.6797 74.9649 56.5409C74.969 77.402 58.3394 94.3697 37.8989 94.3697Z" fill="#222222"/>
<path d="M37.899 86.2939C53.9998 86.2939 67.0521 72.973 67.0521 56.5409C67.0521 40.1088 53.9998 26.7879 37.899 26.7879C21.7982 26.7879 8.74585 40.1088 8.74585 56.5409C8.74585 72.973 21.7982 86.2939 37.899 86.2939Z" fill="#FBF3C1"/>
<path d="M37.8986 26.363C21.5937 26.363 8.32886 39.9006 8.32886 56.541C8.32886 73.1815 21.5937 86.7191 37.8986 86.7191C54.2036 86.7191 67.4682 73.1815 67.4682 56.541C67.4682 39.9006 54.2036 26.363 37.8986 26.363ZM37.8986 85.869C22.0518 85.869 9.16186 72.7139 9.16186 56.541C9.16186 40.3682 22.056 27.2131 37.8986 27.2131C53.7413 27.2131 66.6352 40.3682 66.6352 56.541C66.6352 72.7139 53.7454 85.869 37.8986 85.869Z" fill="#222222"/>
<path d="M39.8271 53.8971C34.4879 51.7889 32.218 50.3097 32.218 47.4024C32.218 45.069 33.9962 42.4464 38.719 42.4464C42.6589 42.4464 45.1745 43.7556 46.4572 44.4484L47.9941 40.6825C46.2116 39.7134 43.7085 38.8038 40.0144 38.6891V33.1635H36.1494V38.8633C30.5561 39.7177 26.9371 43.3008 26.9371 48.0315C26.9371 52.9833 30.8021 55.661 37.0617 57.9393C41.6221 59.6522 44.0083 61.5819 44.0083 64.7145C44.0083 67.9575 41.068 70.2995 36.6326 70.2995C33.2592 70.2995 30.0689 69.2157 27.9157 67.847L26.4414 71.6681C28.5862 73.0878 32.2139 74.1164 35.7706 74.1674V79.9182H39.6354V73.9931C45.9616 73.024 49.3474 68.8119 49.3474 64.2554C49.3516 59.1889 46.1575 56.2816 39.8271 53.8971Z" fill="#222222"/>
<path d="M205.1 84.3724C225.801 84.3724 242.583 67.2456 242.583 46.1186C242.583 24.9915 225.801 7.86469 205.1 7.86469C184.399 7.86469 167.618 24.9915 167.618 46.1186C167.618 67.2456 184.399 84.3724 205.1 84.3724Z" fill="white"/>
<path d="M205.1 7.43982C184.202 7.43982 167.201 24.7943 167.201 46.1187C167.201 67.4431 184.202 84.7976 205.1 84.7976C225.999 84.7976 242.999 67.4431 242.999 46.1187C242.999 24.7943 225.995 7.43982 205.1 7.43982ZM205.1 83.9476C184.664 83.9476 168.034 66.9798 168.034 46.1187C168.034 25.2576 184.664 8.28991 205.1 8.28991C225.537 8.28991 242.166 25.2576 242.166 46.1187C242.166 66.9798 225.537 83.9476 205.1 83.9476Z" fill="#222222"/>
<path d="M205.1 75.8715C221.201 75.8715 234.253 62.5506 234.253 46.1185C234.253 29.6864 221.201 16.3655 205.1 16.3655C188.999 16.3655 175.947 29.6864 175.947 46.1185C175.947 62.5506 188.999 75.8715 205.1 75.8715Z" fill="white"/>
<path d="M205.1 15.9406C188.795 15.9406 175.531 29.4782 175.531 46.1186C175.531 62.759 188.795 76.2967 205.1 76.2967C221.405 76.2967 234.67 62.759 234.67 46.1186C234.666 29.4782 221.405 15.9406 205.1 15.9406ZM205.1 75.4466C189.253 75.4466 176.364 62.2915 176.364 46.1186C176.364 29.9457 189.258 16.7906 205.1 16.7906C220.943 16.7906 233.837 29.9457 233.837 46.1186C233.837 62.2915 220.947 75.4466 205.1 75.4466Z" fill="#222222"/>
<path d="M217.595 43.9933H207.183V22.7411C207.183 21.568 206.25 20.6159 205.1 20.6159C203.951 20.6159 203.018 21.568 203.018 22.7411V48.2437H217.595C218.744 48.2437 219.677 47.2916 219.677 46.1185C219.677 44.9454 218.744 43.9933 217.595 43.9933Z" fill="#222222"/>
<path d="M205.1 50.3689C207.4 50.3689 209.265 48.4659 209.265 46.1185C209.265 43.771 207.4 41.868 205.1 41.868C202.8 41.868 200.936 43.771 200.936 46.1185C200.936 48.4659 202.8 50.3689 205.1 50.3689Z" fill="#222222"/>
<path d="M184.277 45.6935H180.112C179.879 45.6935 179.695 45.8848 179.695 46.1186C179.695 46.3524 179.879 46.5436 180.112 46.5436H184.277C184.51 46.5436 184.693 46.3524 184.693 46.1186C184.689 45.8848 184.506 45.6935 184.277 45.6935Z" fill="#222222"/>
<path d="M230.089 45.6935H225.924C225.691 45.6935 225.507 45.8848 225.507 46.1186C225.507 46.3524 225.691 46.5436 225.924 46.5436H230.089C230.322 46.5436 230.505 46.3524 230.505 46.1186C230.501 45.8848 230.318 45.6935 230.089 45.6935Z" fill="#222222"/>
<path d="M205.1 66.9457C204.867 66.9457 204.684 67.137 204.684 67.3707V71.6212C204.684 71.8549 204.867 72.0462 205.1 72.0462C205.333 72.0462 205.517 71.8549 205.517 71.6212V67.3707C205.513 67.137 205.329 66.9457 205.1 66.9457Z" fill="#222222"/>
<path d="M215.875 64.3104C215.762 64.1064 215.504 64.0342 215.304 64.1532C215.104 64.2679 215.038 64.5272 215.15 64.7312L217.233 68.4121C217.308 68.5481 217.453 68.6246 217.595 68.6246C217.666 68.6246 217.736 68.6076 217.803 68.5651C218.003 68.4504 218.07 68.1911 217.957 67.9871L215.875 64.3104Z" fill="#222222"/>
<path d="M192.969 23.821C192.852 23.617 192.598 23.549 192.398 23.6637C192.198 23.7785 192.132 24.0378 192.244 24.2418L194.327 27.9227C194.401 28.0587 194.547 28.1352 194.689 28.1352C194.76 28.1352 194.83 28.1182 194.897 28.0757C195.097 27.9609 195.164 27.7016 195.051 27.4976L192.969 23.821Z" fill="#222222"/>
<path d="M223.342 56.3751C223.142 56.2561 222.892 56.3283 222.771 56.5324C222.659 56.7364 222.725 56.9957 222.925 57.1104L226.532 59.2356C226.598 59.2739 226.669 59.2952 226.74 59.2952C226.882 59.2952 227.023 59.2186 227.102 59.0826C227.215 58.8786 227.148 58.6193 226.948 58.5046L223.342 56.3751Z" fill="#222222"/>
<path d="M183.665 32.9977C183.465 32.8787 183.215 32.951 183.094 33.155C182.982 33.359 183.048 33.6183 183.248 33.733L186.855 35.8583C186.921 35.8965 186.992 35.9178 187.063 35.9178C187.205 35.9178 187.346 35.8413 187.425 35.7053C187.538 35.5012 187.471 35.2419 187.271 35.1272L183.665 32.9977Z" fill="#222222"/>
<path d="M226.532 32.9974L222.925 35.1227C222.725 35.2374 222.659 35.4967 222.771 35.7007C222.85 35.8367 222.992 35.9132 223.133 35.9132C223.204 35.9132 223.275 35.8962 223.342 35.8537L226.948 33.7285C227.148 33.6138 227.215 33.3545 227.102 33.1505C226.99 32.9549 226.736 32.8784 226.532 32.9974Z" fill="#222222"/>
<path d="M186.859 56.3749L183.252 58.5001C183.052 58.6149 182.981 58.8741 183.098 59.0782C183.173 59.2142 183.319 59.2907 183.46 59.2907C183.531 59.2907 183.602 59.2737 183.668 59.2312L187.275 57.106C187.475 56.9912 187.542 56.7319 187.429 56.5279C187.313 56.3281 187.058 56.2601 186.859 56.3749Z" fill="#222222"/>
<path d="M217.233 23.8211L215.15 27.502C215.038 27.706 215.104 27.9653 215.304 28.0801C215.371 28.1183 215.442 28.1396 215.512 28.1396C215.654 28.1396 215.796 28.0631 215.875 27.927L217.957 24.2462C218.07 24.0422 218.003 23.7829 217.803 23.6681C217.603 23.5449 217.345 23.6171 217.233 23.8211Z" fill="#222222"/>
<path d="M194.327 64.3107L192.244 67.9916C192.132 68.1956 192.198 68.4549 192.398 68.5696C192.465 68.6079 192.536 68.6291 192.606 68.6291C192.748 68.6291 192.89 68.5526 192.969 68.4166L195.051 64.7357C195.164 64.5317 195.097 64.2724 194.897 64.1577C194.697 64.0344 194.439 64.1067 194.327 64.3107Z" fill="#222222"/>
<path d="M150.717 106.564C150.717 106.564 139.26 108.948 135.408 119.919C135.408 119.919 130.514 123.527 128.003 124.348C124.709 125.431 128.236 129.044 128.236 129.044C128.236 129.044 126.358 132.083 126.358 135.598C126.358 139.114 123.409 140.844 125.787 144.869C128.515 149.493 136.341 146.297 136.341 156.519C136.341 156.519 155.848 159.154 167.738 157.361C179.637 155.571 174.465 106.564 150.717 106.564Z" fill="white"/>
<path d="M150.717 106.139C150.688 106.139 150.659 106.143 150.634 106.147C150.517 106.173 138.989 108.689 135.062 119.651C134.341 120.174 130.098 123.217 127.874 123.948C126.953 124.25 126.399 124.769 126.229 125.487C125.9 126.868 127.166 128.488 127.715 129.108C127.245 129.963 125.937 132.594 125.937 135.607C125.937 136.827 125.55 137.839 125.175 138.821C124.509 140.567 123.817 142.378 125.425 145.098C126.52 146.952 128.365 147.632 130.152 148.29C133.121 149.387 135.924 150.42 135.924 156.528C135.924 156.74 136.078 156.923 136.286 156.949C136.428 156.97 147.285 158.415 157.693 158.415C161.262 158.415 164.781 158.245 167.801 157.79C172.436 157.089 174.948 149.808 174.181 139.233C173.223 125.929 166.185 106.139 150.717 106.139ZM167.676 156.944C156.86 158.577 139.46 156.494 136.753 156.15C136.628 149.774 133.342 148.558 130.435 147.487C128.711 146.854 127.078 146.25 126.141 144.652C124.746 142.293 125.304 140.822 125.949 139.122C126.353 138.068 126.766 136.98 126.766 135.599C126.766 132.249 128.565 129.3 128.582 129.27C128.682 129.1 128.657 128.883 128.523 128.743C128.028 128.233 126.795 126.694 127.036 125.678C127.132 125.262 127.491 124.956 128.124 124.747C130.672 123.914 135.445 120.408 135.649 120.255C135.72 120.204 135.766 120.136 135.795 120.055C139.41 109.76 150.026 107.151 150.759 106.981C165.627 107.019 172.416 126.312 173.348 139.284C174.069 149.234 171.787 156.328 167.676 156.944Z" fill="#222222"/>
<path d="M213.913 82.1749C208.837 84.7252 210.694 88.1425 210.694 88.1425C210.694 88.1425 217.391 85.333 219.032 85.333C222.489 85.333 218.99 79.6289 213.913 82.1749Z" fill="white"/>
<path d="M216.504 81.0106C215.575 81.0106 214.63 81.2486 213.697 81.7204C211.718 82.7107 210.498 83.9561 210.048 85.4267C209.557 87.0589 210.236 88.3425 210.265 88.3978C210.352 88.5636 210.519 88.6571 210.694 88.6571C210.756 88.6571 210.819 88.6443 210.881 88.6188C212.718 87.8495 217.762 85.8475 219.032 85.8475C219.602 85.8475 220.056 85.7115 220.385 85.4438C220.722 85.1717 220.906 84.7722 220.906 84.3131C220.91 82.783 218.986 81.0106 216.504 81.0106ZM219.777 84.6362C219.627 84.7552 219.365 84.8232 219.032 84.8232C217.545 84.8232 212.605 86.8039 210.969 87.4797C210.865 87.0887 210.769 86.4511 210.99 85.7285C211.352 84.5384 212.406 83.4971 214.13 82.6342C214.921 82.2347 215.721 82.0307 216.499 82.0307C218.619 82.0307 219.915 83.5056 219.915 84.3089C219.919 84.5002 219.84 84.5894 219.777 84.6362Z" fill="#222222"/>
<path d="M213.134 73.0962C214.637 64.7059 212.114 63.9876 210.127 66.4486C208.082 68.9776 208.236 72.7095 208.236 72.7095C207.274 74.0271 204.309 78.6856 204.309 78.6856C202.489 78.8768 200.89 80.577 200.89 80.577C200.89 80.577 208.648 67.6472 207.249 65.4582C205.142 62.1642 202.251 66.4188 201.327 67.9277C199.503 70.9073 199.011 73.4278 199.011 73.4278C196.454 75.9015 194.713 79.982 194.713 79.982L185.126 78.4263C184.547 84.3004 186.759 88.4573 188.762 90.9523C193.214 96.5034 190.923 111.529 190.923 111.529C199.536 114.746 208.686 102.335 208.686 102.335C205.113 95.8106 204.005 90.285 204.005 90.285C209.315 88.6316 212.213 88.8484 214.417 83.8158C215.12 82.2092 217.49 74.2226 216.678 71.2303C215.616 67.3497 213.134 73.0962 213.134 73.0962Z" fill="white"/>
<path d="M215.741 69.462C215.116 69.4408 214.421 70.0613 213.888 70.8349C214.246 67.5068 213.825 65.4794 212.651 64.9226C211.814 64.523 210.773 64.9778 209.806 66.1764C207.899 68.5354 207.807 71.8168 207.816 72.5691C206.879 73.874 204.588 77.4613 204.063 78.2859C203.439 78.3837 202.847 78.6387 202.339 78.9277C204.592 74.9961 208.811 67.12 207.599 65.2244C206.995 64.285 206.279 63.809 205.446 63.809C205.446 63.809 205.433 63.809 205.425 63.809C203.701 63.826 202.052 65.9342 200.973 67.7024C199.349 70.3589 198.766 72.6413 198.632 73.2109C196.463 75.3489 194.913 78.5197 194.463 79.51L185.189 78.0054C185.089 77.9841 184.964 78.0139 184.868 78.0862C184.781 78.1584 184.722 78.2647 184.71 78.3794C184.114 84.4065 186.409 88.691 188.441 91.22C192.723 96.5585 190.532 111.316 190.511 111.461C190.478 111.66 190.595 111.856 190.782 111.924C191.831 112.315 192.885 112.489 193.926 112.489C201.623 112.489 208.682 103.045 209.019 102.586C209.115 102.45 209.128 102.271 209.048 102.122C206.079 96.6988 204.817 91.9213 204.496 90.5739C205.321 90.3231 206.091 90.1191 206.804 89.9279C210.485 88.9375 212.922 88.2829 214.796 83.9857C215.479 82.4301 217.936 74.265 217.082 71.1112C216.966 70.7244 216.641 69.53 215.741 69.462ZM214.029 83.6457C212.318 87.5689 210.281 88.1172 206.587 89.1118C205.758 89.3328 204.859 89.5751 203.88 89.8811C203.676 89.9448 203.551 90.1574 203.597 90.3741C203.605 90.4294 204.73 95.8955 208.19 102.301C206.941 103.895 198.895 113.722 191.39 111.244C191.715 108.881 193.277 95.9039 189.087 90.6844C187.213 88.3424 185.093 84.4235 185.505 78.9192L194.651 80.4026C194.83 80.4494 195.022 80.3304 195.097 80.1519C195.113 80.1094 196.833 76.1224 199.299 73.738C199.365 73.6785 199.403 73.5977 199.419 73.5127C199.428 73.4872 199.924 71.0262 201.681 68.1529C203.03 65.9469 204.396 64.676 205.433 64.6633H205.446C205.983 64.6633 206.458 64.9991 206.899 65.6919C207.766 67.0478 203.701 75.0853 200.536 80.3559C200.423 80.5386 200.465 80.7809 200.631 80.9127C200.802 81.0444 201.044 81.0189 201.19 80.8702C201.202 80.8532 202.705 79.2805 204.355 79.1063C204.475 79.0935 204.592 79.0213 204.659 78.915C204.688 78.8682 207.628 74.2523 208.574 72.9601C208.632 72.8794 208.661 72.7816 208.657 72.6881C208.657 72.6499 208.54 69.0837 210.456 66.7162C211.143 65.8662 211.864 65.4751 212.305 65.6919C213.076 66.0574 213.596 68.1742 212.73 73.0196C212.693 73.2322 212.817 73.4404 213.017 73.5042C213.217 73.5679 213.434 73.4659 213.521 73.2704C214.142 71.8295 215.15 70.3121 215.666 70.3121C215.674 70.3121 215.679 70.3121 215.687 70.3121C215.841 70.3206 216.078 70.6011 216.283 71.3492C217.041 74.1672 214.771 81.9625 214.029 83.6457Z" fill="#222222"/>
<path d="M213.292 72.3905C213.013 72.3395 212.772 72.5393 212.73 72.8156C212.418 74.894 211.447 80.5556 210.793 81.7415C210.377 82.4896 207.957 83.6882 206.533 84.2747C206.279 84.3767 206.154 84.6743 206.254 84.9336C206.333 85.1333 206.521 85.2566 206.712 85.2566C206.775 85.2566 206.833 85.2438 206.895 85.2183C207.566 84.9463 210.944 83.5224 211.656 82.2515C212.522 80.6831 213.592 73.7592 213.709 72.9728C213.746 72.6923 213.563 72.433 213.292 72.3905Z" fill="#222222"/>
<path d="M205.85 94.7516C205.85 94.7516 198.595 107.55 187.808 107.864C187.808 120.866 187.292 133.843 188.55 135.934C188.55 135.934 166.218 163.247 152.662 178.175C152.662 178.175 168.671 201.318 201.589 178.477C216.274 168.284 226.844 147.865 226.844 138.731C226.844 125.282 211.543 96.9066 205.85 94.7516Z" fill="#813DFF"/>
<path d="M206 94.3524C205.808 94.2759 205.592 94.3609 205.492 94.5351C205.421 94.6627 198.233 107.133 187.8 107.439C187.575 107.448 187.396 107.635 187.396 107.864C187.396 110.933 187.367 114.002 187.338 116.926C187.242 127.251 187.225 133.852 188.058 135.875C185.934 138.463 165.119 163.834 152.358 177.89C152.225 178.039 152.208 178.26 152.321 178.426C152.429 178.583 159.83 188.92 174.56 188.92C181.853 188.92 190.94 186.387 201.827 178.834C217.12 168.221 227.261 147.67 227.261 138.735C227.261 124.921 211.731 96.5201 206 94.3524ZM201.352 178.128C171.141 199.1 155.161 180.708 153.204 178.205C166.635 163.384 188.645 136.483 188.866 136.211C188.979 136.07 188.991 135.871 188.899 135.718C188.004 134.226 188.083 125.831 188.167 116.943C188.192 114.147 188.221 111.218 188.221 108.281C198.05 107.72 204.784 97.3319 206.012 95.296C211.701 98.2585 226.424 125.806 226.424 138.74C226.432 147.589 215.904 168.034 201.352 178.128Z" fill="#222222"/>
<path d="M196.538 177.869C203.26 170.563 202.018 139.088 180.462 139.088C180.462 139.088 174.098 148.214 172.162 148.869C157.189 153.918 145.524 150.756 137.353 151.563C127.287 152.558 129.915 158.934 129.915 158.934C129.915 158.934 111.156 165.177 112.014 191.156C112.46 204.711 112.335 231.14 112.123 242.535H202.581C202.643 239.105 201.648 221.224 200.598 218.38C195.472 204.519 196.538 177.869 196.538 177.869Z" fill="#813DFF"/>
<path d="M196.95 178.039C200.873 173.572 202.176 160.88 197.966 150.955C195.588 145.349 190.619 138.663 180.461 138.663C180.328 138.663 180.199 138.731 180.124 138.842C177.596 142.463 173.356 148.018 172.032 148.469C161.807 151.916 153.07 151.508 146.052 151.176C142.75 151.015 139.893 150.879 137.315 151.142C133.504 151.521 130.989 152.702 129.847 154.653C128.906 156.264 129.181 157.926 129.393 158.683C126.674 159.788 110.81 167.277 111.601 191.173C112.051 204.974 111.914 231.539 111.71 242.527C111.706 242.641 111.751 242.752 111.826 242.833C111.901 242.918 112.014 242.96 112.122 242.96H202.58C202.809 242.96 202.992 242.773 202.997 242.544C203.063 238.935 202.076 221.164 200.994 218.231C196.15 205.153 196.875 180.245 196.95 178.039ZM112.543 242.11C112.743 230.863 112.872 204.783 112.426 191.143C111.593 165.806 129.856 159.401 130.043 159.341C130.151 159.303 130.243 159.222 130.293 159.112C130.343 159.006 130.343 158.878 130.297 158.772C130.289 158.751 129.531 156.859 130.564 155.091C131.563 153.382 133.862 152.341 137.398 151.992C139.922 151.746 142.741 151.878 146.011 152.031C153.095 152.367 161.924 152.779 172.29 149.281C174.206 148.635 179.603 141.048 180.678 139.522C190.24 139.615 194.942 145.965 197.204 151.3C201.327 161.033 200.069 173.419 196.237 177.589C196.171 177.665 196.133 177.759 196.129 177.861C196.117 178.128 195.117 204.753 200.21 218.537C201.206 221.223 202.16 237.826 202.168 242.119H112.543V242.11Z" fill="#222222"/>
<path d="M171.858 180.819C161.791 177.028 155.448 171.328 150.355 166.742C145.928 162.755 142.725 159.882 139.16 160.341L139.281 161.348C142.404 160.931 145.47 163.699 149.705 167.511C154.591 171.906 161.279 177.925 171.516 181.776C176.297 183.578 180.283 184.254 183.565 184.254C193.381 184.254 196.917 178.205 196.967 178.124L196.105 177.61C196.055 177.716 190.145 187.701 171.858 180.819Z" fill="#222222"/>
<path d="M55.6323 94.6837C64.3366 95.5975 57.5854 87.4962 51.4424 88.3208C45.2994 89.1496 41.3638 90.6458 35.0417 89.3281C28.1366 87.8872 14.947 80.6275 7.45877 80.3385C2.4361 80.1472 3.41074 83.2458 6.71754 84.4317C8.95816 85.2392 18.1914 89.7957 18.1914 89.7957C18.1914 89.7957 12.4815 90.1017 12.6522 92.9198C12.823 95.7335 11.5486 96.0906 11.457 98.4283C11.3029 102.373 13.86 103.452 14.0183 107.006C14.314 113.662 24.6799 111.044 29.0445 117.117C33.4092 123.196 44.8872 152.757 44.8872 152.757L61.946 138.259C61.946 138.259 43.9211 117.687 44.3417 106.98C44.475 103.737 46.9239 93.7698 55.6323 94.6837Z" fill="white"/>
<path d="M44.7624 107.01C44.8582 104.579 46.1242 99.7333 49.127 97.0768C50.9053 95.5042 53.0584 94.8538 55.5947 95.1089C57.9145 95.3511 59.4015 94.9941 59.9679 94.0463C60.3594 93.3917 60.2552 92.5331 59.6763 91.6193C58.3103 89.4728 54.6702 87.4581 51.3967 87.9044C49.8766 88.1084 48.5023 88.3507 47.1737 88.5887C43.2214 89.29 39.8105 89.8978 35.1335 88.916C32.3182 88.3294 28.4158 86.7525 24.2885 85.0821C18.2247 82.6296 11.9525 80.0921 7.48369 79.9221C7.32543 79.9178 7.17562 79.9136 7.03402 79.9136C4.31445 79.9136 3.70222 80.9294 3.58561 81.5585C3.36071 82.7529 4.62673 84.1343 6.59248 84.8441C8.28337 85.4519 14.1183 88.2784 16.7379 89.5578C15.4802 89.7746 13.7268 90.2506 12.8355 91.2707C12.4066 91.7595 12.2108 92.3291 12.2483 92.9539C12.3316 94.4033 12.0192 95.1386 11.686 95.9165C11.3945 96.5923 11.0945 97.2936 11.0528 98.4199C10.9654 100.639 11.6902 101.999 12.3899 103.312C12.9855 104.422 13.5436 105.471 13.6144 107.031C13.7851 110.929 17.1209 111.894 20.6485 112.914C23.6721 113.789 26.7914 114.691 28.7197 117.377C33.001 123.34 44.4001 152.626 44.5126 152.923C44.5625 153.051 44.6666 153.144 44.7957 153.178C44.8291 153.187 44.8665 153.191 44.8956 153.191C44.9914 153.191 45.0871 153.157 45.162 153.093L62.2208 138.595C62.3041 138.523 62.3584 138.417 62.3667 138.302C62.3751 138.187 62.3375 138.072 62.2625 137.987C62.0793 137.783 44.3501 117.424 44.7624 107.01ZM45.0665 152.069C43.4297 147.886 33.4551 122.545 29.3862 116.88C27.2871 113.96 23.8805 112.969 20.8694 112.102C17.3585 111.082 14.5804 110.279 14.4347 106.997C14.3555 105.238 13.7227 104.052 13.1146 102.908C12.4358 101.642 11.7984 100.439 11.8734 98.4582C11.915 97.4934 12.169 96.894 12.4397 96.2607C12.8021 95.4234 13.1727 94.5606 13.0686 92.9029C13.0436 92.5034 13.1686 92.1548 13.4476 91.8403C14.6679 90.4419 18.1831 90.2336 18.2123 90.2336C18.4038 90.2251 18.5619 90.0806 18.5994 89.8893C18.641 89.7023 18.5454 89.5068 18.3747 89.426C17.9957 89.239 9.09128 84.8483 6.85481 84.045C5.18059 83.4414 4.2686 82.3661 4.38937 81.72C4.47683 81.244 5.2224 80.7637 7.02157 80.7637C7.15484 80.7637 7.29233 80.7637 7.44226 80.7722C11.7694 80.9379 18.2539 83.5604 23.9721 85.8727C28.141 87.5558 32.0724 89.1498 34.9627 89.7533C39.7896 90.7564 43.2798 90.1444 47.3113 89.4303C48.6273 89.1965 49.9973 88.9542 51.4966 88.7502C54.6868 88.3209 57.9021 90.4079 58.9725 92.0868C59.2057 92.4481 59.547 93.1239 59.2513 93.6085C59.0764 93.9017 58.3894 94.5521 55.674 94.2673C52.9128 93.974 50.5346 94.7136 48.5772 96.4435C44.9788 99.6313 44.0001 105.131 43.9335 106.985C43.5337 117.122 58.9598 135.454 61.3545 138.234L45.0665 152.069Z" fill="#222222"/>
<path d="M141.492 119.574L141.159 120.531C141.172 120.539 142.3 121.173 141.813 125.699L142.796 125.81C143.375 120.467 141.813 119.676 141.492 119.574Z" fill="#222222"/>
<path d="M147.206 133.626L147.693 134.51C149.051 133.72 150.471 133.979 151.496 134.621C151.508 135.42 151.346 136.066 150.942 136.478C150.188 137.243 148.939 137.137 148.93 137.137L148.839 138.149C148.851 138.149 148.947 138.162 149.101 138.162C149.622 138.162 150.792 138.055 151.629 137.209C152.07 136.763 152.287 136.134 152.4 135.428C153.237 136.453 153.462 137.779 152.92 139.105C151.525 142.565 147.294 141.634 147.115 141.592L146.898 142.586C146.915 142.59 147.568 142.735 148.489 142.735C150.167 142.735 152.72 142.246 153.832 139.496C154.598 137.592 154.169 135.577 152.708 134.238C151.187 132.848 148.976 132.598 147.206 133.626Z" fill="#222222"/>
<path d="M140.355 123.953C139.726 123.549 138.789 123.872 138.327 124.637C137.856 125.423 137.99 126.401 138.635 126.813C138.827 126.936 139.048 126.996 139.272 126.996C139.805 126.996 140.339 126.664 140.659 126.125C140.913 125.7 141.001 125.207 140.905 124.769C140.826 124.416 140.63 124.127 140.355 123.953Z" fill="#222222"/>
<path d="M50.976 117.552C50.976 117.552 38.6986 128.131 37.8989 150.497C37.8989 150.497 54.0789 181.176 68.0516 196.036C82.0326 210.895 108.241 214.007 119.865 214.848L135.299 170.219C126.299 159.529 88.8877 153.468 88.8877 153.468C78.9007 134.128 50.976 117.552 50.976 117.552Z" fill="#813DFF"/>
<path d="M89.167 153.081C79.1508 133.937 51.4637 117.347 51.1847 117.181C51.0347 117.092 50.8431 117.109 50.7098 117.224C50.5849 117.33 38.2823 128.182 37.4868 150.479C37.4827 150.556 37.4992 150.628 37.5367 150.696C37.6991 151.002 53.9042 181.597 67.7562 196.329C80.417 209.781 103.069 214.057 119.844 215.273C119.853 215.277 119.865 215.277 119.874 215.277C120.09 215.277 120.273 215.107 120.29 214.882C120.307 214.648 120.136 214.444 119.903 214.427C103.277 213.22 80.8332 209.003 68.3599 195.742C54.9827 181.516 39.3651 152.354 38.3239 150.399C39.086 130.213 49.3938 119.634 51.0347 118.078C53.8917 119.821 79.2257 135.654 88.5298 153.671C88.5922 153.79 88.7047 153.871 88.8338 153.892C89.2086 153.952 126.196 160.056 134.992 170.503C135.146 170.677 135.404 170.703 135.583 170.546C135.758 170.393 135.779 170.125 135.629 169.946C126.875 159.554 92.4697 153.629 89.167 153.081Z" fill="#222222"/>
<path d="M190.307 130.677C195.321 107.516 180.591 108.659 180.591 108.659C168.4 84.6615 149.855 97.8719 149.855 97.8719C130.231 94.8753 135.441 112.855 135.441 112.855C137.261 101.489 144.283 103.988 144.283 103.988C132.938 107.427 141.617 115.724 144.316 118.992C147.602 122.966 145.557 126.575 147.085 130.787C147.831 130.532 148.664 130.388 149.58 130.388C159.209 130.388 159.196 145.787 149.58 145.787C147.435 145.787 145.778 145.022 144.591 143.832C130.635 137.201 116.1 160.417 116.1 160.417C128.377 164.336 136.769 173.806 136.769 173.806C120.085 205.803 127.524 222.835 159.567 219.74C191.602 216.642 187.262 239.007 206.958 225.929C226.644 212.854 215.966 198.747 198.616 179.824C181.257 160.918 184.826 156.031 190.307 130.677Z" fill="#222222"/>
</g>
<defs>
<clipPath id="clip0_46_2379">
<rect width="243" height="248" fill="white"/>
</clipPath>
</defs>
</svg>
